<svg xmlns="http://www.w3.org/2000/svg" xmlns:xlink="http://www.w3.org/1999/xlink" width="72.465" height="72.465" viewBox="0 0 72.465 72.465"><defs><style>.a{fill:url(#a);}.b{filter:url(#h);}.c{filter:url(#e);}.d{filter:url(#b);}</style><linearGradient id="a" x1="1" y1="1" x2="0" y2="-0.108" gradientUnits="objectBoundingBox"><stop offset="0" stop-color="#ae322e"/><stop offset="1" stop-color="#1b5683"/></linearGradient><filter id="b" x="0" y="1.197" width="71.268" height="71.268" filterUnits="userSpaceOnUse"><feOffset dx="7" dy="18" input="SourceAlpha"/><feGaussianBlur stdDeviation="10" result="c"/><feFlood flood-opacity="0.161"/><feComposite operator="in" in2="c"/><feComposite in="SourceGraphic"/></filter><filter id="e" x="6.169" y="2.49" width="63.769" height="63.688" filterUnits="userSpaceOnUse"><feOffset dx="7" dy="18" input="SourceAlpha"/><feGaussianBlur stdDeviation="10" result="f"/><feFlood flood-opacity="0.161"/><feComposite operator="in" in2="f"/><feComposite in="SourceGraphic"/></filter><filter id="h" x="6.297" y="0" width="66.168" height="66.012" filterUnits="userSpaceOnUse"><feOffset dx="7" dy="18" input="SourceAlpha"/><feGaussianBlur stdDeviation="10" result="i"/><feFlood flood-opacity="0.161"/><feComposite operator="in" in2="i"/><feComposite in="SourceGraphic"/></filter></defs><g transform="translate(22.994 12)"><g transform="translate(0.006)"><g class="d" transform="matrix(1, 0, 0, 1, -23, -12)"><path class="a" d="M9.482,53.186a.873.873,0,0,0-1.32,0c-.309.306-.617.612-.921.923a.182.182,0,0,1-.254.047c-.2-.109-.412-.2-.6-.316a9.576,9.576,0,0,1-2.309-2.1,5.469,5.469,0,0,1-.827-1.325.19.19,0,0,1,.047-.244c.309-.3.61-.6.913-.91a.877.877,0,0,0,0-1.351c-.241-.244-.482-.482-.724-.726s-.5-.5-.747-.747a.879.879,0,0,0-1.32,0c-.311.306-.61.62-.926.921a1.5,1.5,0,0,0-.472,1.014,4.3,4.3,0,0,0,.332,1.849,11.238,11.238,0,0,0,1.995,3.323,12.343,12.343,0,0,0,4.088,3.2,5.912,5.912,0,0,0,2.264.659,1.659,1.659,0,0,0,1.424-.542c.265-.3.563-.565.843-.848a.882.882,0,0,0,.005-1.344Q10.227,53.924,9.482,53.186Z" transform="translate(22.99 -32.94)"/></g><g class="c" transform="matrix(1, 0, 0, 1, -23, -12)"><path class="a" d="M240.666,99.688l.957-.163A4.3,4.3,0,0,0,237.989,96l-.135.962a3.32,3.32,0,0,1,2.812,2.726Z" transform="translate(-208.68 -81.51)"/></g><g class="b" transform="matrix(1, 0, 0, 1, -23, -12)"><path class="a" d="M246.935,2.018A7.058,7.058,0,0,0,242.889,0l-.135.962a6.158,6.158,0,0,1,5.211,5.05l.957-.163A7.109,7.109,0,0,0,246.935,2.018Z" transform="translate(-213.46 12)"/></g></g></g></svg>