<svg xmlns="http://www.w3.org/2000/svg" xmlns:xlink="http://www.w3.org/1999/xlink" width="100.71" height="100.71" viewBox="0 0 100.71 100.71"><defs><style>.a{fill:none;}.b{fill:#454545;}.c{filter:url(#g);}.d{filter:url(#e);}.e{filter:url(#c);}.f{filter:url(#a);}</style><filter id="a" x="24.331" y="20.673" width="61.59" height="61.59" filterUnits="userSpaceOnUse"><feOffset dx="7" dy="18" input="SourceAlpha"/><feGaussianBlur stdDeviation="10" result="b"/><feFlood flood-opacity="0.161"/><feComposite operator="in" in2="b"/><feComposite in="SourceGraphic"/></filter><filter id="c" x="0" y="0" width="100.71" height="100.71" filterUnits="userSpaceOnUse"><feOffset dx="7" dy="18" input="SourceAlpha"/><feGaussianBlur stdDeviation="10" result="d"/><feFlood flood-opacity="0.161"/><feComposite operator="in" in2="d"/><feComposite in="SourceGraphic"/></filter><filter id="e" x="12.404" y="4.771" width="75.902" height="75.902" filterUnits="userSpaceOnUse"><feOffset dx="7" dy="18" input="SourceAlpha"/><feGaussianBlur stdDeviation="10" result="f"/><feFlood flood-opacity="0.161"/><feComposite operator="in" in2="f"/><feComposite in="SourceGraphic"/></filter><filter id="g" x="19.56" y="23.272" width="64.53" height="66.466" filterUnits="userSpaceOnUse"><feOffset dx="7" dy="18" input="SourceAlpha"/><feGaussianBlur stdDeviation="10" result="h"/><feFlood flood-opacity="0.161"/><feComposite operator="in" in2="h"/><feComposite in="SourceGraphic"/></filter></defs><g transform="translate(13 12)"><rect class="a" width="60" height="41"/><g transform="translate(9.999)"><g class="f" transform="matrix(1, 0, 0, 1, -23, -12)"><path class="b" d="M306.8,260a.8.8,0,1,0,.8.8A.8.8,0,0,0,306.8,260Zm0,0" transform="translate(-258.67 -227.33)"/></g><g class="e" transform="matrix(1, 0, 0, 1, -23, -12)"><path class="b" d="M8.124,29.4.173,39.421A.8.8,0,0,0,.8,40.71h39.12a.8.8,0,0,0,.623-1.289L32.587,29.4a.8.8,0,0,0-.623-.3H25l5.946-9.326a12.722,12.722,0,1,0-21.18,0L15.712,29.1H8.747A.8.8,0,0,0,8.124,29.4ZM5.156,35.7H9.963L7.25,39.12H2.442Zm11.571-5.009,2.18,3.419h-5.65l2.714-3.419Zm7.259,0h.757l2.713,3.419h-5.65ZM28.718,35.7l2.713,3.419H9.28L11.994,35.7Zm4.744,3.419L30.748,35.7h4.808l2.713,3.419Zm.832-5.009H29.486l-2.714-3.419H31.58ZM11.093,18.9a11.131,11.131,0,1,1,18.525,0l-.009.014L20.356,33.427,11.1,18.913Zm2.846,11.793-2.713,3.419H6.417l2.714-3.419Zm0,0" transform="translate(23 12)"/></g><g class="d" transform="matrix(1, 0, 0, 1, -23, -12)"><path class="b" d="M163.951,75.9A7.951,7.951,0,1,0,156,67.951,7.952,7.952,0,0,0,163.951,75.9Zm0-14.312a6.361,6.361,0,1,1-6.361,6.361A6.368,6.368,0,0,1,163.951,61.59Zm0,0" transform="translate(-120.6 -43.23)"/></g><g class="c" transform="matrix(1, 0, 0, 1, -23, -12)"><path class="b" d="M250.141,292.8a.8.8,0,0,0-1.091.271l-2.939,4.876a.8.8,0,0,0,1.362.821l2.939-4.876A.8.8,0,0,0,250.141,292.8Zm0,0" transform="translate(-203.44 -257.42)"/></g></g></g></svg>