<svg xmlns="http://www.w3.org/2000/svg" xmlns:xlink="http://www.w3.org/1999/xlink" width="38.5" height="38.5" viewBox="0 0 38.5 38.5"><defs><style>.a{fill:url(#a);}</style><linearGradient id="a" x1="1" y1="1" x2="0" y2="-0.108" gradientUnits="objectBoundingBox"><stop offset="0" stop-color="#00b1ff"/><stop offset="1" stop-color="#5040fe"/></linearGradient></defs><g transform="translate(0.001 -0.501)"><path class="a" d="M238.507,254.429a.752.752,0,1,0,1.063,0A.751.751,0,0,0,238.507,254.429Zm0,0" transform="translate(-220.369 -234.63)"/><path class="a" d="M30.094,2.7c-1.29,1-1.642,1.514-6.218,6.043L21.132,8.3l1.259-1.259A2.256,2.256,0,1,0,19.2,3.847L15.645,7.4,3.209,5.379a2.537,2.537,0,0,0-1.9,4.559l12.393,8.975-2.32,2.32a18.868,18.868,0,0,0-2.492,3.254l-5.779-1.7a2.43,2.43,0,0,0-2.069,4.33L5.784,30.4c-.825,1.82-1.326,3.136-1.349,3.2a.752.752,0,0,0,.97.97c.061-.023,1.377-.525,3.2-1.349l3.28,4.738a2.43,2.43,0,0,0,4.33-2.069l-1.7-5.779a18.881,18.881,0,0,0,3.254-2.492l2.32-2.32,8.974,12.393a2.537,2.537,0,0,0,4.559-1.9L31.6,23.355,35.152,19.8a2.256,2.256,0,0,0-3.19-3.191L30.7,17.867l-.446-2.743C34.79,10.543,35.3,10.2,36.3,8.909l0,0c2.319-3.006,2.862-6.041,1.35-7.554S33.1.38,30.094,2.7Zm-9.83,2.211a.752.752,0,0,1,1.064,1.063L19.3,8l-1.829-.3ZM2.2,8.719a1.033,1.033,0,0,1,.772-1.856l19.6,3.191-7.782,7.782ZM1.774,24.464a.927.927,0,0,1,.917-.234L8.1,25.82c-.553.968-1.111,2.038-1.667,3.2L1.9,25.881A.927.927,0,0,1,1.774,24.464ZM14.536,37.225a.927.927,0,0,1-1.417-.128L9.984,32.57c1.158-.557,2.228-1.115,3.2-1.667l1.589,5.405A.927.927,0,0,1,14.536,37.225Zm18.49-19.554a.752.752,0,0,1,1.063,1.064l-2.79,2.79L31,19.7Zm-.889,18.359a1.033,1.033,0,0,1-1.856.773L21.164,24.216l7.782-7.782ZM16.7,26.549a18.937,18.937,0,0,1-3.6,2.656,55.717,55.717,0,0,1-6.6,3.286,55,55,0,0,1,3.359-6.717A18.616,18.616,0,0,1,12.45,22.3C30.818,3.972,29.73,4.917,30.845,4.026a3.9,3.9,0,0,1,3.083,1.046,3.905,3.905,0,0,1,1.046,3.083C34.08,9.272,35.015,8.194,16.7,26.549ZM36.261,6.179a4.963,4.963,0,0,0-3.44-3.44c1.088-.552,2.921-1.17,3.765-.326C37.253,3.08,37.088,4.548,36.261,6.179Zm0,0" transform="translate(0 0)"/><path class="a" d="M268.925,197.861l-2.127,2.126a.752.752,0,0,0,1.064,1.064l2.126-2.127a.752.752,0,1,0-1.063-1.063Zm0,0" transform="translate(-246.534 -182.316)"/><path class="a" d="M325.487,141.291l-2.128,2.127a.752.752,0,0,0,1.064,1.064l2.127-2.127a.752.752,0,0,0-1.063-1.064Zm0,0" transform="translate(-298.842 -130)"/></g></svg>