<svg xmlns="http://www.w3.org/2000/svg" xmlns:xlink="http://www.w3.org/1999/xlink" width="120.227" height="109.714" viewBox="0 0 120.227 109.714">
  <defs>
    <filter id="Path_7870" x="0" y="8.999" width="120.227" height="100.715" filterUnits="userSpaceOnUse">
      <feOffset dx="7" dy="18" input="SourceAlpha"/>
      <feGaussianBlur stdDeviation="10" result="blur"/>
      <feFlood flood-opacity="0.161"/>
      <feComposite operator="in" in2="blur"/>
      <feComposite in="SourceGraphic"/>
    </filter>
  </defs>
  <g id="Group_7665" data-name="Group 7665" transform="translate(-9430 -10388)">
    <rect id="Rectangle_2288" data-name="Rectangle 2288" width="82" height="82" transform="translate(9442 10388)" fill="none"/>
    <g id="Group_7663" data-name="Group 7663" transform="translate(9161.001 5629)">
      <g id="heart-box" transform="translate(283.08 4758.315)">
        <g id="Group_7181" data-name="Group 7181" transform="translate(8.919 21.685)">
          <g id="Group_7180" data-name="Group 7180" transform="translate(0)">
            <g transform="matrix(1, 0, 0, 1, -23, -21)" filter="url(#Path_7870)">
              <path id="Path_7870-2" data-name="Path 7870" d="M68.939,190.68l-5.654-11.129a2.871,2.871,0,0,0-2.54-1.624H17.319a2.871,2.871,0,0,0-2.54,1.624L9.125,190.68a1.921,1.921,0,0,0,.073,1.863,1.7,1.7,0,0,0,1.449.83h4.6V215.76a2.784,2.784,0,0,0,2.668,2.882H60.145a2.784,2.784,0,0,0,2.668-2.882v-9.61a.914.914,0,0,0-1.828,0v9.61a.978.978,0,0,1-.84,1.053h-20.2V182.658l4.768,9.384a2.36,2.36,0,0,0,2.091,1.332h14.18v8.51a.914.914,0,0,0,1.828,0v-8.51h4.6a1.7,1.7,0,0,0,1.449-.83A1.922,1.922,0,0,0,68.939,190.68Zm-58.193.866a.083.083,0,0,1,.009-.037l5.654-11.129a1.056,1.056,0,0,1,.91-.624H37.543l-5.822,11.459h0a.547.547,0,0,1-.461.331Zm27.372,25.268H17.92a.978.978,0,0,1-.84-1.053V193.374H31.26a2.36,2.36,0,0,0,2.091-1.332l4.768-9.384Zm8.687-25.268a.547.547,0,0,1-.461-.331l-5.822-11.459H60.745a1.057,1.057,0,0,1,.91.624l5.654,11.129a.082.082,0,0,1,.009.037Z" transform="translate(14.08 -156.93)" fill="#454545"/>
            </g>
          </g>
        </g>
      </g>
    </g>
  </g>
</svg>
