<svg xmlns="http://www.w3.org/2000/svg" xmlns:xlink="http://www.w3.org/1999/xlink" width="37" height="36.997" viewBox="0 0 37 36.997"><defs><style>.a{fill:url(#a);}</style><linearGradient id="a" x1="1" y1="1" x2="0" y2="-0.108" gradientUnits="objectBoundingBox"><stop offset="0" stop-color="#00b1ff"/><stop offset="1" stop-color="#5040fe"/></linearGradient></defs><g transform="translate(-0.001 -0.025)"><g transform="translate(23.266 18.375)"><path class="a" d="M327.722,256.938l-4.674-2.884a.723.723,0,1,0-.759,1.23l4.674,2.884a.723.723,0,0,0,.76-1.23Z" transform="translate(-321.948 -253.949)"/></g><g transform="translate(20.804 16.855)"><path class="a" d="M288.6,232.915a.728.728,0,0,0-.7.889.741.741,0,0,0,.327.444.7.7,0,0,0,.375.113.717.717,0,0,0,.616-.343A.74.74,0,0,0,288.6,232.915Z" transform="translate(-287.877 -232.915)"/></g><g transform="translate(8.066 18.348)"><path class="a" d="M117.589,253.91a.744.744,0,0,0-1-.226l-4.646,2.93a.727.727,0,0,0-.226,1,.754.754,0,0,0,.612.325.684.684,0,0,0,.384-.1l4.646-2.93A.728.728,0,0,0,117.589,253.91Z" transform="translate(-111.611 -253.58)"/></g><g transform="translate(15.155 16.799)"><path class="a" d="M210.431,232.145a.723.723,0,1,0,.706.882A.725.725,0,0,0,210.431,232.145Z" transform="translate(-209.71 -232.145)"/></g><g transform="translate(0.001 0.025)"><g transform="translate(0 0)"><path class="a" d="M36.824,32.938a.723.723,0,0,0-1.02-.071,6.577,6.577,0,0,1-2.495,1.644,4.39,4.39,0,0,1-3.209-.443L33.864,21.4a.723.723,0,0,0-.318-.824l-3.482-2.11V12.31a.723.723,0,0,0-.723-.723H27.9V9.42a.723.723,0,0,0-.723-.723H24.9V6.529a.723.723,0,0,0-.723-.723h-3.5V.748a.723.723,0,0,0-.723-.723H17.055a.723.723,0,0,0-.723.723V5.806h-3.5a.723.723,0,0,0-.723.723V8.7H9.829a.723.723,0,0,0-.723.723v2.168H7.661a.723.723,0,0,0-.723.723v6.161l-3.482,2.11a.723.723,0,0,0-.318.824L6.894,34.042c-.064-.216-1.221-.358-1.425-.384-2.1-.272-3.7.782-5.22,2.1a.723.723,0,0,0-.071,1.019.732.732,0,0,0,1.019.071c1.562-1.357,3.322-2.392,5.388-1.359,1.869.934,3.8,1.335,5.751.311,1.57-.826,3.085-1.54,4.837-.706l1.8.858a5.469,5.469,0,0,0,4.827-.046,8.212,8.212,0,0,1,2.972-1.17,5.913,5.913,0,0,1,3,.783,5.529,5.529,0,0,0,3.967.359,7.984,7.984,0,0,0,3.016-1.92A.722.722,0,0,0,36.824,32.938Zm-8.206-19.9V17.6l-7.53-4.563ZM17.778,1.47h1.445V5.806H17.778ZM13.55,7.252h9.9V8.7h-9.9ZM8.383,13.033h7.53L8.383,17.6Zm9.395,20.749c0-.128-1.03-.365-1.165-.395a5.58,5.58,0,0,0-3.748.5,7.768,7.768,0,0,1-2.572,1.065h-.005a4.138,4.138,0,0,1-1.654-.13l-3.952-13.3,13.1-7.935ZM10.551,11.588V10.142h15.9v1.445Zm18.213,21.9c.008-.224-2.026-.222-2.163-.207a10.294,10.294,0,0,0-3.447,1.332,4.322,4.322,0,0,1-3.932-.143V13.593l13.1,7.935Z" transform="translate(-0.001 -0.025)"/></g></g></g></svg>