<svg xmlns="http://www.w3.org/2000/svg" xmlns:xlink="http://www.w3.org/1999/xlink" width="16.13" height="12.674" viewBox="0 0 16.13 12.674"><defs><style>.a{fill:url(#a);}</style><linearGradient id="a" x1="1" y1="1" x2="0" y2="-0.108" gradientUnits="objectBoundingBox"><stop offset="0" stop-color="#ae322e"/><stop offset="1" stop-color="#1b5683"/></linearGradient></defs><g transform="translate(0 -59.013)"><g transform="translate(0 59.013)"><path class="a" d="M31.14,328.452a1.379,1.379,0,0,0,.944-.356l-4.57-4.57-.316.227q-.513.378-.833.589a5.13,5.13,0,0,1-.851.432,2.593,2.593,0,0,1-.99.22h-.018a2.592,2.592,0,0,1-.99-.22,5.114,5.114,0,0,1-.851-.432q-.32-.211-.833-.589l-.315-.229L16.946,328.1a1.379,1.379,0,0,0,.944.356Z" transform="translate(-16.45 -315.779)"/><path class="a" d="M.909,199.338A4.772,4.772,0,0,1,0,198.555v6.953l4.028-4.028Q2.819,200.636.909,199.338Z" transform="translate(0 -194.468)"/><path class="a" d="M416.435,199.338q-1.839,1.245-3.126,2.144l4.026,4.026v-6.953A4.967,4.967,0,0,1,416.435,199.338Z" transform="translate(-401.205 -194.468)"/><path class="a" d="M14.7,59.013H1.446a1.285,1.285,0,0,0-1.067.468,1.816,1.816,0,0,0-.374,1.17A2.1,2.1,0,0,0,.5,61.88a4.466,4.466,0,0,0,1.053,1.04Q1.86,63.136,3.4,64.2c.554.384,1.036.719,1.45,1.007l.908.636.134.1.248.179q.293.212.486.342t.468.293A2.731,2.731,0,0,0,7.612,67a1.432,1.432,0,0,0,.45.081H8.08A1.433,1.433,0,0,0,8.53,67a2.724,2.724,0,0,0,.518-.243q.274-.162.468-.293T10,66.119l.248-.179.135-.1.911-.633,3.3-2.292a4.281,4.281,0,0,0,1.1-1.107,2.381,2.381,0,0,0,.441-1.359,1.452,1.452,0,0,0-1.44-1.44Z" transform="translate(-0.006 -59.013)"/></g></g></svg>