<svg xmlns="http://www.w3.org/2000/svg" width="99.013" height="33.599" viewBox="0 0 99.013 33.599"><defs><style>.a{fill:gray;fill-rule:evenodd;}</style></defs><path class="a" d="M30,86.649h7.293v-7.38h5.5V74.524h-5.5V71.889h8.728v-5.87H30Zm18.742,0h15.82V81.7H56.375V66.019H48.739Zm18.43,0h7.638V66.019H67.169V86.649Zm10.989,0H85.8V78.923l6.455,7.727h9.005l-8.1-8.252c2.572-.678,5.728-2.3,5.728-6.189,0-.943-.312-6.189-9.43-6.189h-11.3ZM85.8,75.3V70.558h1.87c2.728,0,3.584,1.208,3.584,2.358,0,1.209-.857,2.387-3.584,2.387ZM37.656,88.888a7.416,7.416,0,0,0-3.665-.935c-2.822,0-4.234,1.327-4.234,2.858,0,1.884,1.635,2.547,2.874,2.831,1.05.244,2.306.324,2.306,1.259,0,.569-.568.8-1.188.8a5.276,5.276,0,0,1-2.994-1.26l-1.6,2.017a7.736,7.736,0,0,0,4.509,1.519c2.822,0,4.526-1.234,4.526-3.118,0-.921-.206-2.261-2.633-2.925-1.153-.325-2.547-.3-2.547-1.083,0-.339.241-.813,1.256-.813a3.857,3.857,0,0,1,2.185.84l1.205-1.992Zm5.059,8.818h3.373V94.022l4.165-5.8H46.57l-2,3.333-2.048-3.333H38.548l4.167,5.8Zm15.522-8.818a7.416,7.416,0,0,0-3.665-.935c-2.822,0-4.234,1.327-4.234,2.858,0,1.884,1.635,2.547,2.874,2.831,1.049.244,2.306.324,2.306,1.259,0,.569-.568.8-1.188.8a5.274,5.274,0,0,1-2.994-1.26l-1.6,2.017a7.735,7.735,0,0,0,4.509,1.519c2.822,0,4.525-1.234,4.525-3.118,0-.921-.206-2.261-2.633-2.925-1.153-.325-2.547-.3-2.547-1.083,0-.339.241-.813,1.257-.813a3.86,3.86,0,0,1,2.185.84l1.2-1.992Zm3.787,8.818H65.4V90.5h2.65V88.224H59.374V90.5h2.65v7.206Zm6.711,0h7.229V95.431H72.108V93.913H75.6V91.828H72.108V90.5h3.856V88.224H68.736v9.482Zm8.363,0h3.235l.9-5.5,2.031,5.5h2.167l2.031-5.5.9,5.5H91.59l-1.756-9.482H86.461l-2.116,5.785-2.117-5.785H78.855Zm24.213-8.818a7.416,7.416,0,0,0-3.665-.935c-2.823,0-4.234,1.327-4.234,2.858,0,1.884,1.635,2.547,2.875,2.831,1.049.244,2.306.324,2.306,1.259,0,.569-.568.8-1.188.8a5.276,5.276,0,0,1-2.994-1.26l-1.6,2.017a7.734,7.734,0,0,0,4.509,1.519c2.822,0,4.525-1.234,4.525-3.118,0-.921-.207-2.261-2.633-2.925-1.154-.325-2.547-.3-2.547-1.083,0-.339.241-.813,1.256-.813a3.86,3.86,0,0,1,2.186.84ZM2.834,75.958,14.157,64.635,25.48,75.958,20,81.434l-5.846-5.846L8.311,81.434Zm0,10.954L14.157,98.234,25.48,86.911,20,81.434,14.157,87.28,8.311,81.434,2.834,86.911Z" transform="translate(-2.834 -64.635)"/></svg>