<svg xmlns="http://www.w3.org/2000/svg" width="798.5" height="411.528" viewBox="0 0 798.5 411.528"><defs><style>.a{opacity:0.465;}.b{fill:#edeeef;}</style></defs><g class="a" transform="translate(-375.958 -3350.659)"><circle class="b" cx="5.203" cy="5.203" r="5.203" transform="translate(718.613 3536.568)"/><path class="b" d="M364.147,204.673a5.2,5.2,0,1,0-5.2,5.2A5.2,5.2,0,0,0,364.147,204.673Z" transform="translate(399.13 3337.098)"/><circle class="b" cx="5.203" cy="5.203" r="5.203" transform="translate(770.004 3536.568)"/><circle class="b" cx="5.203" cy="5.203" r="5.203" transform="translate(787.138 3536.568)"/><path class="b" d="M412.057,204.673a5.2,5.2,0,1,0-5.2,5.2A5.2,5.2,0,0,0,412.057,204.673Z" transform="translate(402.622 3337.098)"/><path class="b" d="M428.027,130.353a5.2,5.2,0,1,0-5.2,5.2A5.2,5.2,0,0,0,428.027,130.353Z" transform="translate(403.786 3495.019)"/><circle class="b" cx="5.203" cy="5.203" r="5.203" transform="translate(838.539 3536.568)"/><circle class="b" cx="5.203" cy="5.203" r="5.203" transform="translate(855.673 3536.568)"/><path class="b" d="M475.927,204.673a5.2,5.2,0,1,0-5.2,5.2A5.2,5.2,0,0,0,475.927,204.673Z" transform="translate(407.277 3337.098)"/><circle class="b" cx="5.203" cy="5.203" r="5.203" transform="translate(907.064 3536.568)"/><circle class="b" cx="5.203" cy="5.203" r="5.203" transform="translate(924.198 3536.568)"/><path class="b" d="M539.807,204.673a5.2,5.2,0,1,0-5.2,5.2A5.2,5.2,0,0,0,539.807,204.673Z" transform="translate(411.932 3337.098)"/><path class="b" d="M555.777,204.673a5.2,5.2,0,1,0-5.2,5.2A5.2,5.2,0,0,0,555.777,204.673Z" transform="translate(413.096 3337.098)"/><circle class="b" cx="5.203" cy="5.203" r="5.203" transform="translate(975.6 3536.568)"/><circle class="b" cx="5.203" cy="5.203" r="5.203" transform="translate(992.734 3536.568)"/><path class="b" d="M603.677,204.673a5.2,5.2,0,1,0-5.2,5.2A5.2,5.2,0,0,0,603.677,204.673Z" transform="translate(416.587 3337.098)"/><path class="b" d="M619.647,204.673a5.2,5.2,0,1,0-5.2,5.2A5.2,5.2,0,0,0,619.647,204.673Z" transform="translate(417.751 3337.098)"/><circle class="b" cx="5.203" cy="5.203" r="5.203" transform="translate(1044.124 3536.568)"/><circle class="b" cx="5.203" cy="5.203" r="5.203" transform="translate(1061.258 3536.568)"/><path class="b" d="M667.557,135.2a5.2,5.2,0,1,0-5.2,5.2A5.2,5.2,0,0,0,667.557,135.2Z" transform="translate(421.242 3484.713)"/><path class="b" d="M683.527,204.673a5.2,5.2,0,1,0-5.2,5.2A5.2,5.2,0,0,0,683.527,204.673Z" transform="translate(422.406 3337.098)"/><circle class="b" cx="5.203" cy="5.203" r="5.203" transform="translate(1112.66 3536.568)"/><path class="b" d="M731.427,204.673a5.2,5.2,0,1,0-5.2,5.2A5.2,5.2,0,0,0,731.427,204.673Z" transform="translate(425.897 3337.098)"/><circle class="b" cx="5.203" cy="5.203" r="5.203" transform="translate(718.613 3518.221)"/><circle class="b" cx="5.203" cy="5.203" r="5.203" transform="translate(770.004 3518.221)"/><path class="b" d="M353.75,220.983a5.2,5.2,0,1,0,5.2-5.2A5.2,5.2,0,0,0,353.75,220.983Z" transform="translate(399.131 3302.441)"/><path class="b" d="M353.75,46.023a5.2,5.2,0,1,0,5.2-5.2A5.2,5.2,0,0,0,353.75,46.023Z" transform="translate(399.131 3675.909)"/><path class="b" d="M337.78,220.983a5.2,5.2,0,1,0,5.2-5.2A5.2,5.2,0,0,0,337.78,220.983Z" transform="translate(397.967 3302.441)"/><path class="b" d="M417.62,220.983a5.2,5.2,0,1,0,5.2-5.2A5.2,5.2,0,0,0,417.62,220.983Z" transform="translate(403.786 3302.441)"/><path class="b" d="M401.65,220.983a5.2,5.2,0,1,0,5.2-5.2A5.2,5.2,0,0,0,401.65,220.983Z" transform="translate(402.622 3302.441)"/><circle class="b" cx="5.203" cy="5.203" r="5.203" transform="translate(787.138 3518.221)"/><path class="b" d="M465.53,220.983a5.2,5.2,0,1,0,5.2-5.2A5.2,5.2,0,0,0,465.53,220.983Z" transform="translate(407.277 3302.441)"/><circle class="b" cx="5.203" cy="5.203" r="5.203" transform="translate(855.673 3518.221)"/><circle class="b" cx="5.203" cy="5.203" r="5.203" transform="translate(838.539 3518.221)"/><circle class="b" cx="5.203" cy="5.203" r="5.203" transform="translate(924.198 3518.221)"/><circle class="b" cx="5.203" cy="5.203" r="5.203" transform="translate(907.064 3644.916)"/><path class="b" d="M481.5,220.983a5.2,5.2,0,1,0,5.2-5.2A5.2,5.2,0,0,0,481.5,220.983Z" transform="translate(408.441 3302.441)"/><circle class="b" cx="5.203" cy="5.203" r="5.203" transform="translate(975.6 3518.221)"/><path class="b" d="M609.24,220.983a5.2,5.2,0,1,0,5.2-5.2A5.2,5.2,0,0,0,609.24,220.983Z" transform="translate(417.751 3302.441)"/><path class="b" d="M593.28,115.2a5.2,5.2,0,1,0,5.2-5.2A5.2,5.2,0,0,0,593.28,115.2Z" transform="translate(416.587 3527.21)"/><circle class="b" cx="5.203" cy="5.203" r="5.203" transform="translate(992.734 3518.221)"/><circle class="b" cx="5.203" cy="5.203" r="5.203" transform="translate(1061.258 3518.221)"/><circle class="b" cx="5.203" cy="5.203" r="5.203" transform="translate(1044.124 3518.221)"/><circle class="b" cx="5.203" cy="5.203" r="5.203" transform="translate(1129.794 3518.221)"/><circle class="b" cx="5.203" cy="5.203" r="5.203" transform="translate(1112.66 3518.221)"/><path class="b" d="M673.12,220.983a5.2,5.2,0,1,0,5.2-5.2A5.2,5.2,0,0,0,673.12,220.983Z" transform="translate(422.406 3302.441)"/><path class="b" d="M736.99,220.983a5.2,5.2,0,1,0,5.2-5.2A5.2,5.2,0,0,0,736.99,220.983Z" transform="translate(427.061 3302.441)"/><path class="b" d="M721.03,220.983a5.2,5.2,0,1,0,5.2-5.2A5.2,5.2,0,0,0,721.03,220.983Z" transform="translate(425.898 3302.441)"/><path class="b" d="M348.177,237.723a5.2,5.2,0,1,0-5.2,5.2A5.2,5.2,0,0,0,348.177,237.723Z" transform="translate(397.966 3266.871)"/><path class="b" d="M364.147,237.723a5.2,5.2,0,1,0-5.2,5.2A5.2,5.2,0,0,0,364.147,237.723Z" transform="translate(399.13 3266.871)"/><circle class="b" cx="5.203" cy="5.203" r="5.203" transform="translate(770.004 3499.391)"/><circle class="b" cx="5.203" cy="5.203" r="5.203" transform="translate(787.138 3499.391)"/><path class="b" d="M412.057,237.723a5.2,5.2,0,1,0-5.2,5.2A5.2,5.2,0,0,0,412.057,237.723Z" transform="translate(402.622 3266.871)"/><path class="b" d="M428.027,237.723a5.2,5.2,0,1,0-5.2,5.2A5.2,5.2,0,0,0,428.027,237.723Z" transform="translate(403.786 3266.871)"/><circle class="b" cx="5.203" cy="5.203" r="5.203" transform="translate(838.539 3499.391)"/><circle class="b" cx="5.203" cy="5.203" r="5.203" transform="translate(855.673 3499.391)"/><path class="b" d="M475.927,237.723a5.2,5.2,0,1,0-5.2,5.2A5.2,5.2,0,0,0,475.927,237.723Z" transform="translate(407.277 3266.871)"/><path class="b" d="M491.9,237.723a5.2,5.2,0,1,0-5.2,5.2A5.2,5.2,0,0,0,491.9,237.723Z" transform="translate(408.44 3266.871)"/><circle class="b" cx="5.203" cy="5.203" r="5.203" transform="translate(907.064 3499.391)"/><circle class="b" cx="5.203" cy="5.203" r="5.203" transform="translate(924.198 3499.391)"/><path class="b" d="M539.807,237.723a5.2,5.2,0,1,0-5.2,5.2A5.2,5.2,0,0,0,539.807,237.723Z" transform="translate(411.932 3266.871)"/><path class="b" d="M555.777,237.723a5.2,5.2,0,1,0-5.2,5.2A5.2,5.2,0,0,0,555.777,237.723Z" transform="translate(413.096 3266.871)"/><circle class="b" cx="5.203" cy="5.203" r="5.203" transform="translate(975.6 3499.391)"/><circle class="b" cx="5.203" cy="5.203" r="5.203" transform="translate(992.734 3499.391)"/><path class="b" d="M603.677,237.723a5.2,5.2,0,1,0-5.2,5.2A5.2,5.2,0,0,0,603.677,237.723Z" transform="translate(416.587 3266.871)"/><path class="b" d="M619.647,237.723a5.2,5.2,0,1,0-5.2,5.2A5.2,5.2,0,0,0,619.647,237.723Z" transform="translate(417.751 3266.871)"/><circle class="b" cx="5.203" cy="5.203" r="5.203" transform="translate(1044.124 3499.391)"/><circle class="b" cx="5.203" cy="5.203" r="5.203" transform="translate(1061.258 3499.391)"/><path class="b" d="M667.557,237.723a5.2,5.2,0,1,0-5.2,5.2A5.2,5.2,0,0,0,667.557,237.723Z" transform="translate(421.242 3266.871)"/><path class="b" d="M683.527,237.723a5.2,5.2,0,1,0-5.2,5.2A5.2,5.2,0,0,0,683.527,237.723Z" transform="translate(422.406 3266.871)"/><circle class="b" cx="5.203" cy="5.203" r="5.203" transform="translate(1112.66 3499.391)"/><circle class="b" cx="5.203" cy="5.203" r="5.203" transform="translate(1129.794 3499.391)"/><path class="b" d="M747.4,237.723a5.2,5.2,0,1,0-5.2,5.2A5.2,5.2,0,0,0,747.4,237.723Z" transform="translate(427.061 3266.871)"/><circle class="b" cx="5.203" cy="5.203" r="5.203" transform="translate(718.613 3481.044)"/><circle class="b" cx="5.203" cy="5.203" r="5.203" transform="translate(770.004 3481.044)"/><path class="b" d="M337.78,254.033a5.2,5.2,0,1,0,5.2-5.2A5.2,5.2,0,0,0,337.78,254.033Z" transform="translate(397.967 3232.214)"/><path class="b" d="M401.65,254.033a5.2,5.2,0,1,0,5.2-5.2A5.2,5.2,0,0,0,401.65,254.033Z" transform="translate(402.622 3232.214)"/><circle class="b" cx="5.203" cy="5.203" r="5.203" transform="translate(787.138 3481.044)"/><path class="b" d="M465.53,254.033a5.2,5.2,0,1,0,5.2-5.2A5.2,5.2,0,0,0,465.53,254.033Z" transform="translate(407.277 3232.214)"/><circle class="b" cx="5.203" cy="5.203" r="5.203" transform="translate(855.673 3481.044)"/><circle class="b" cx="5.203" cy="5.203" r="5.203" transform="translate(838.539 3481.044)"/><circle class="b" cx="5.203" cy="5.203" r="5.203" transform="translate(924.198 3481.044)"/><circle class="b" cx="5.203" cy="5.203" r="5.203" transform="translate(907.064 3481.044)"/><path class="b" d="M481.5,254.033a5.2,5.2,0,1,0,5.2-5.2A5.2,5.2,0,0,0,481.5,254.033Z" transform="translate(408.441 3232.214)"/><circle class="b" cx="5.203" cy="5.203" r="5.203" transform="translate(975.6 3481.044)"/><path class="b" d="M529.4,254.033a5.2,5.2,0,1,0,5.2-5.2A5.2,5.2,0,0,0,529.4,254.033Z" transform="translate(411.932 3232.214)"/><path class="b" d="M609.24,254.033a5.2,5.2,0,1,0,5.2-5.2A5.2,5.2,0,0,0,609.24,254.033Z" transform="translate(417.751 3232.214)"/><path class="b" d="M593.28,254.033a5.2,5.2,0,1,0,5.2-5.2A5.2,5.2,0,0,0,593.28,254.033Z" transform="translate(416.587 3232.214)"/><path class="b" d="M657.15,254.033a5.2,5.2,0,1,0,5.2-5.2A5.2,5.2,0,0,0,657.15,254.033Z" transform="translate(421.242 3232.214)"/><circle class="b" cx="5.203" cy="5.203" r="5.203" transform="translate(1061.258 3481.044)"/><circle class="b" cx="5.203" cy="5.203" r="5.203" transform="translate(1044.124 3481.044)"/><circle class="b" cx="5.203" cy="5.203" r="5.203" transform="translate(1129.794 3481.044)"/><circle class="b" cx="5.203" cy="5.203" r="5.203" transform="translate(1112.66 3481.044)"/><path class="b" d="M673.12,254.033a5.2,5.2,0,1,0,5.2-5.2A5.2,5.2,0,0,0,673.12,254.033Z" transform="translate(422.406 3232.214)"/><path class="b" d="M736.99,254.033a5.2,5.2,0,1,0,5.2-5.2A5.2,5.2,0,0,0,736.99,254.033Z" transform="translate(427.061 3232.214)"/><path class="b" d="M721.03,254.033a5.2,5.2,0,1,0,5.2-5.2A5.2,5.2,0,0,0,721.03,254.033Z" transform="translate(425.898 3232.214)"/><circle class="b" cx="5.203" cy="5.203" r="5.203" transform="translate(701.479 3462.202)"/><circle class="b" cx="5.203" cy="5.203" r="5.203" transform="translate(718.613 3462.202)"/><path class="b" d="M348.177,270.783a5.2,5.2,0,1,0-5.2,5.2A5.2,5.2,0,0,0,348.177,270.783Z" transform="translate(397.966 3196.622)"/><circle class="b" cx="5.203" cy="5.203" r="5.203" transform="translate(770.004 3462.202)"/><circle class="b" cx="5.203" cy="5.203" r="5.203" transform="translate(787.138 3462.202)"/><path class="b" d="M412.057,270.783a5.2,5.2,0,1,0-5.2,5.2A5.2,5.2,0,0,0,412.057,270.783Z" transform="translate(402.622 3196.622)"/><path class="b" d="M428.027,270.783a5.2,5.2,0,1,0-5.2,5.2A5.2,5.2,0,0,0,428.027,270.783Z" transform="translate(403.786 3196.622)"/><circle class="b" cx="5.203" cy="5.203" r="5.203" transform="translate(838.539 3462.202)"/><circle class="b" cx="5.203" cy="5.203" r="5.203" transform="translate(855.673 3462.202)"/><path class="b" d="M475.927,270.783a5.2,5.2,0,1,0-5.2,5.2A5.2,5.2,0,0,0,475.927,270.783Z" transform="translate(407.277 3196.622)"/><circle class="b" cx="5.203" cy="5.203" r="5.203" transform="translate(907.064 3462.202)"/><path class="b" d="M539.807,270.783a5.2,5.2,0,1,0-5.2,5.2A5.2,5.2,0,0,0,539.807,270.783Z" transform="translate(411.932 3196.622)"/><path class="b" d="M555.777,270.783a5.2,5.2,0,1,0-5.2,5.2A5.2,5.2,0,0,0,555.777,270.783Z" transform="translate(413.096 3196.622)"/><circle class="b" cx="5.203" cy="5.203" r="5.203" transform="translate(975.6 3462.202)"/><circle class="b" cx="5.203" cy="5.203" r="5.203" transform="translate(992.734 3462.202)"/><path class="b" d="M603.677,270.783a5.2,5.2,0,1,0-5.2,5.2A5.2,5.2,0,0,0,603.677,270.783Z" transform="translate(416.587 3196.622)"/><path class="b" d="M619.647,270.783a5.2,5.2,0,1,0-5.2,5.2A5.2,5.2,0,0,0,619.647,270.783Z" transform="translate(417.751 3196.622)"/><circle class="b" cx="5.203" cy="5.203" r="5.203" transform="translate(1044.124 3462.202)"/><circle class="b" cx="5.203" cy="5.203" r="5.203" transform="translate(1061.258 3462.202)"/><path class="b" d="M667.557,270.783a5.2,5.2,0,1,0-5.2,5.2A5.2,5.2,0,0,0,667.557,270.783Z" transform="translate(421.242 3196.622)"/><path class="b" d="M683.527,270.783a5.2,5.2,0,1,0-5.2,5.2A5.2,5.2,0,0,0,683.527,270.783Z" transform="translate(422.406 3196.622)"/><circle class="b" cx="5.203" cy="5.203" r="5.203" transform="translate(1112.66 3462.202)"/><circle class="b" cx="5.203" cy="5.203" r="5.203" transform="translate(1129.794 3462.202)"/><path class="b" d="M731.427,270.783a5.2,5.2,0,1,0-5.2,5.2A5.2,5.2,0,0,0,731.427,270.783Z" transform="translate(425.897 3196.622)"/><path class="b" d="M747.4,270.783a5.2,5.2,0,1,0-5.2,5.2A5.2,5.2,0,0,0,747.4,270.783Z" transform="translate(427.061 3196.622)"/><path class="b" d="M34.37,287.083a5.2,5.2,0,1,0,5.2-5.2A5.2,5.2,0,0,0,34.37,287.083Z" transform="translate(375.855 3161.987)"/><circle class="b" cx="5.203" cy="5.203" r="5.203" transform="translate(393.091 3484.059)"/><circle class="b" cx="5.203" cy="5.203" r="5.203" transform="translate(375.957 3443.866)"/><circle class="b" cx="5.203" cy="5.203" r="5.203" transform="translate(461.616 3443.866)"/><circle class="b" cx="5.203" cy="5.203" r="5.203" transform="translate(444.493 3443.866)"/><circle class="b" cx="5.203" cy="5.203" r="5.203" transform="translate(513.018 3443.866)"/><circle class="b" cx="5.203" cy="5.203" r="5.203" transform="translate(495.884 3443.866)"/><path class="b" d="M98.25,77.353a5.2,5.2,0,1,0,5.2-5.2A5.2,5.2,0,0,0,98.25,77.353Z" transform="translate(380.511 3607.638)"/><circle class="b" cx="5.203" cy="5.203" r="5.203" transform="translate(564.419 3631.417)"/><path class="b" d="M162.12,90.6a5.2,5.2,0,1,0,5.2-5.2A5.2,5.2,0,0,0,162.12,90.6Z" transform="translate(385.165 3579.483)"/><circle class="b" cx="5.203" cy="5.203" r="5.203" transform="translate(530.151 3443.866)"/><path class="b" d="M226,153.353a5.2,5.2,0,1,0,5.2-5.2A5.2,5.2,0,0,0,226,153.353Z" transform="translate(389.821 3446.146)"/><circle class="b" cx="5.203" cy="5.203" r="5.203" transform="translate(598.676 3443.866)"/><circle class="b" cx="5.203" cy="5.203" r="5.203" transform="translate(581.553 3443.866)"/><circle class="b" cx="5.203" cy="5.203" r="5.203" transform="translate(667.212 3443.866)"/><circle class="b" cx="5.203" cy="5.203" r="5.203" transform="translate(650.078 3443.866)"/><circle class="b" cx="5.203" cy="5.203" r="5.203" transform="translate(632.944 3443.866)"/><circle class="b" cx="5.203" cy="5.203" r="5.203" transform="translate(718.613 3443.866)"/><circle class="b" cx="5.203" cy="5.203" r="5.203" transform="translate(701.479 3443.866)"/><path class="b" d="M289.87,287.083a5.2,5.2,0,1,0,5.2-5.2A5.2,5.2,0,0,0,289.87,287.083Z" transform="translate(394.476 3161.987)"/><circle class="b" cx="5.203" cy="5.203" r="5.203" transform="translate(770.004 3443.866)"/><path class="b" d="M353.75,287.083a5.2,5.2,0,1,0,5.2-5.2A5.2,5.2,0,0,0,353.75,287.083Z" transform="translate(399.131 3161.987)"/><path class="b" d="M337.78,287.083a5.2,5.2,0,1,0,5.2-5.2A5.2,5.2,0,0,0,337.78,287.083Z" transform="translate(397.967 3161.987)"/><path class="b" d="M417.62,287.083a5.2,5.2,0,1,0,5.2-5.2A5.2,5.2,0,0,0,417.62,287.083Z" transform="translate(403.786 3161.987)"/><path class="b" d="M401.65,287.083a5.2,5.2,0,1,0,5.2-5.2A5.2,5.2,0,0,0,401.65,287.083Z" transform="translate(402.622 3161.987)"/><circle class="b" cx="5.203" cy="5.203" r="5.203" transform="translate(787.138 3443.866)"/><path class="b" d="M465.53,287.083a5.2,5.2,0,1,0,5.2-5.2A5.2,5.2,0,0,0,465.53,287.083Z" transform="translate(407.277 3161.987)"/><circle class="b" cx="5.203" cy="5.203" r="5.203" transform="translate(855.673 3443.866)"/><circle class="b" cx="5.203" cy="5.203" r="5.203" transform="translate(838.539 3443.866)"/><circle class="b" cx="5.203" cy="5.203" r="5.203" transform="translate(924.198 3443.866)"/><circle class="b" cx="5.203" cy="5.203" r="5.203" transform="translate(907.064 3443.866)"/><path class="b" d="M481.5,287.083a5.2,5.2,0,1,0,5.2-5.2A5.2,5.2,0,0,0,481.5,287.083Z" transform="translate(408.441 3161.987)"/><circle class="b" cx="5.203" cy="5.203" r="5.203" transform="translate(975.6 3443.866)"/><path class="b" d="M545.37,287.083a5.2,5.2,0,1,0,5.2-5.2A5.2,5.2,0,0,0,545.37,287.083Z" transform="translate(413.096 3161.987)"/><path class="b" d="M529.4,287.083a5.2,5.2,0,1,0,5.2-5.2A5.2,5.2,0,0,0,529.4,287.083Z" transform="translate(411.932 3161.987)"/><path class="b" d="M609.24,287.083a5.2,5.2,0,1,0,5.2-5.2A5.2,5.2,0,0,0,609.24,287.083Z" transform="translate(417.751 3161.987)"/><path class="b" d="M593.28,287.083a5.2,5.2,0,1,0,5.2-5.2A5.2,5.2,0,0,0,593.28,287.083Z" transform="translate(416.587 3161.987)"/><circle class="b" cx="5.203" cy="5.203" r="5.203" transform="translate(992.734 3443.866)"/><path class="b" d="M657.15,287.083a5.2,5.2,0,1,0,5.2-5.2A5.2,5.2,0,0,0,657.15,287.083Z" transform="translate(421.242 3161.987)"/><circle class="b" cx="5.203" cy="5.203" r="5.203" transform="translate(1044.124 3443.866)"/><circle class="b" cx="5.203" cy="5.203" r="5.203" transform="translate(1129.794 3443.866)"/><circle class="b" cx="5.203" cy="5.203" r="5.203" transform="translate(1112.66 3443.866)"/><path class="b" d="M673.12,287.083a5.2,5.2,0,1,0,5.2-5.2A5.2,5.2,0,0,0,673.12,287.083Z" transform="translate(422.406 3161.987)"/><circle class="b" cx="5.203" cy="5.203" r="5.203" transform="translate(393.091 3425.025)"/><path class="b" d="M44.777,303.834a5.2,5.2,0,1,0-5.2,5.2A5.2,5.2,0,0,0,44.777,303.834Z" transform="translate(375.855 3126.395)"/><circle class="b" cx="5.203" cy="5.203" r="5.203" transform="translate(427.359 3425.025)"/><circle class="b" cx="5.203" cy="5.203" r="5.203" transform="translate(444.493 3425.025)"/><circle class="b" cx="5.203" cy="5.203" r="5.203" transform="translate(461.616 3425.025)"/><path class="b" d="M108.647,303.834a5.2,5.2,0,1,0-5.2,5.2A5.2,5.2,0,0,0,108.647,303.834Z" transform="translate(380.51 3126.395)"/><circle class="b" cx="5.203" cy="5.203" r="5.203" transform="translate(513.018 3425.025)"/><circle class="b" cx="5.203" cy="5.203" r="5.203" transform="translate(530.151 3425.025)"/><path class="b" d="M172.527,303.834a5.2,5.2,0,1,0-5.2,5.2A5.2,5.2,0,0,0,172.527,303.834Z" transform="translate(385.165 3126.395)"/><circle class="b" cx="5.203" cy="5.203" r="5.203" transform="translate(564.419 3425.025)"/><circle class="b" cx="5.203" cy="5.203" r="5.203" transform="translate(581.553 3425.025)"/><circle class="b" cx="5.203" cy="5.203" r="5.203" transform="translate(598.676 3425.025)"/><path class="b" d="M236.4,303.834a5.2,5.2,0,1,0-5.2,5.2A5.2,5.2,0,0,0,236.4,303.834Z" transform="translate(389.82 3126.395)"/><circle class="b" cx="5.203" cy="5.203" r="5.203" transform="translate(632.944 3425.025)"/><circle class="b" cx="5.203" cy="5.203" r="5.203" transform="translate(650.078 3425.025)"/><circle class="b" cx="5.203" cy="5.203" r="5.203" transform="translate(667.212 3425.025)"/><path class="b" d="M300.277,303.834a5.2,5.2,0,1,0-5.2,5.2A5.2,5.2,0,0,0,300.277,303.834Z" transform="translate(394.476 3126.395)"/><circle class="b" cx="5.203" cy="5.203" r="5.203" transform="translate(701.479 3425.025)"/><path class="b" d="M348.177,303.834a5.2,5.2,0,1,0-5.2,5.2A5.2,5.2,0,0,0,348.177,303.834Z" transform="translate(397.966 3126.395)"/><path class="b" d="M364.147,303.834a5.2,5.2,0,1,0-5.2,5.2A5.2,5.2,0,0,0,364.147,303.834Z" transform="translate(399.13 3126.395)"/><circle class="b" cx="5.203" cy="5.203" r="5.203" transform="translate(770.004 3425.025)"/><path class="b" d="M412.057,303.834a5.2,5.2,0,1,0-5.2,5.2A5.2,5.2,0,0,0,412.057,303.834Z" transform="translate(402.622 3126.395)"/><path class="b" d="M428.027,303.834a5.2,5.2,0,1,0-5.2,5.2A5.2,5.2,0,0,0,428.027,303.834Z" transform="translate(403.786 3126.395)"/><circle class="b" cx="5.203" cy="5.203" r="5.203" transform="translate(855.673 3425.025)"/><path class="b" d="M475.927,303.834a5.2,5.2,0,1,0-5.2,5.2A5.2,5.2,0,0,0,475.927,303.834Z" transform="translate(407.277 3126.395)"/><path class="b" d="M491.9,303.834a5.2,5.2,0,1,0-5.2,5.2A5.2,5.2,0,0,0,491.9,303.834Z" transform="translate(408.44 3126.395)"/><circle class="b" cx="5.203" cy="5.203" r="5.203" transform="translate(907.064 3425.025)"/><circle class="b" cx="5.203" cy="5.203" r="5.203" transform="translate(924.198 3425.025)"/><path class="b" d="M539.807,303.834a5.2,5.2,0,1,0-5.2,5.2A5.2,5.2,0,0,0,539.807,303.834Z" transform="translate(411.932 3126.395)"/><circle class="b" cx="5.203" cy="5.203" r="5.203" transform="translate(975.6 3425.025)"/><circle class="b" cx="5.203" cy="5.203" r="5.203" transform="translate(992.734 3425.025)"/><path class="b" d="M603.677,303.834a5.2,5.2,0,1,0-5.2,5.2A5.2,5.2,0,0,0,603.677,303.834Z" transform="translate(416.587 3126.395)"/><path class="b" d="M619.647,303.834a5.2,5.2,0,1,0-5.2,5.2A5.2,5.2,0,0,0,619.647,303.834Z" transform="translate(417.751 3126.395)"/><circle class="b" cx="5.203" cy="5.203" r="5.203" transform="translate(1044.124 3425.025)"/><circle class="b" cx="5.203" cy="5.203" r="5.203" transform="translate(1061.258 3425.025)"/><path class="b" d="M667.557,303.834a5.2,5.2,0,1,0-5.2,5.2A5.2,5.2,0,0,0,667.557,303.834Z" transform="translate(421.242 3126.395)"/><path class="b" d="M683.527,303.834a5.2,5.2,0,1,0-5.2,5.2A5.2,5.2,0,0,0,683.527,303.834Z" transform="translate(422.406 3126.395)"/><circle class="b" cx="5.203" cy="5.203" r="5.203" transform="translate(1112.66 3425.025)"/><circle class="b" cx="5.203" cy="5.203" r="5.203" transform="translate(1129.794 3425.025)"/><path class="b" d="M731.427,303.834a5.2,5.2,0,1,0-5.2,5.2A5.2,5.2,0,0,0,731.427,303.834Z" transform="translate(425.897 3126.395)"/><path class="b" d="M747.4,303.834a5.2,5.2,0,1,0-5.2,5.2A5.2,5.2,0,0,0,747.4,303.834Z" transform="translate(427.061 3126.395)"/><circle class="b" cx="5.203" cy="5.203" r="5.203" transform="translate(393.091 3404.088)"/><circle class="b" cx="5.203" cy="5.203" r="5.203" transform="translate(375.957 3404.088)"/><circle class="b" cx="5.203" cy="5.203" r="5.203" transform="translate(461.616 3404.088)"/><circle class="b" cx="5.203" cy="5.203" r="5.203" transform="translate(444.493 3404.088)"/><circle class="b" cx="5.203" cy="5.203" r="5.203" transform="translate(427.359 3577.424)"/><circle class="b" cx="5.203" cy="5.203" r="5.203" transform="translate(513.018 3404.088)"/><circle class="b" cx="5.203" cy="5.203" r="5.203" transform="translate(495.884 3404.088)"/><path class="b" d="M98.25,320.143a5.2,5.2,0,1,0,5.2-5.2A5.2,5.2,0,0,0,98.25,320.143Z" transform="translate(380.511 3089.148)"/><circle class="b" cx="5.203" cy="5.203" r="5.203" transform="translate(564.419 3404.088)"/><path class="b" d="M162.12,320.143a5.2,5.2,0,1,0,5.2-5.2A5.2,5.2,0,0,0,162.12,320.143Z" transform="translate(385.165 3089.148)"/><circle class="b" cx="5.203" cy="5.203" r="5.203" transform="translate(530.151 3404.088)"/><circle class="b" cx="5.203" cy="5.203" r="5.203" transform="translate(598.676 3404.088)"/><circle class="b" cx="5.203" cy="5.203" r="5.203" transform="translate(581.553 3404.088)"/><circle class="b" cx="5.203" cy="5.203" r="5.203" transform="translate(650.078 3404.088)"/><circle class="b" cx="5.203" cy="5.203" r="5.203" transform="translate(632.944 3404.088)"/><circle class="b" cx="5.203" cy="5.203" r="5.203" transform="translate(718.613 3404.088)"/><circle class="b" cx="5.203" cy="5.203" r="5.203" transform="translate(701.479 3404.088)"/><path class="b" d="M289.87,320.143a5.2,5.2,0,1,0,5.2-5.2A5.2,5.2,0,0,0,289.87,320.143Z" transform="translate(394.476 3089.148)"/><circle class="b" cx="5.203" cy="5.203" r="5.203" transform="translate(770.004 3404.088)"/><path class="b" d="M353.75,320.143a5.2,5.2,0,1,0,5.2-5.2A5.2,5.2,0,0,0,353.75,320.143Z" transform="translate(399.131 3089.148)"/><path class="b" d="M337.78,320.143a5.2,5.2,0,1,0,5.2-5.2A5.2,5.2,0,0,0,337.78,320.143Z" transform="translate(397.967 3089.148)"/><path class="b" d="M401.65,320.143a5.2,5.2,0,1,0,5.2-5.2A5.2,5.2,0,0,0,401.65,320.143Z" transform="translate(402.622 3089.148)"/><circle class="b" cx="5.203" cy="5.203" r="5.203" transform="translate(787.138 3404.088)"/><path class="b" d="M465.53,320.143a5.2,5.2,0,1,0,5.2-5.2A5.2,5.2,0,0,0,465.53,320.143Z" transform="translate(407.277 3089.148)"/><circle class="b" cx="5.203" cy="5.203" r="5.203" transform="translate(855.673 3404.088)"/><circle class="b" cx="5.203" cy="5.203" r="5.203" transform="translate(838.539 3404.088)"/><circle class="b" cx="5.203" cy="5.203" r="5.203" transform="translate(924.198 3404.088)"/><path class="b" d="M481.5,320.143a5.2,5.2,0,1,0,5.2-5.2A5.2,5.2,0,0,0,481.5,320.143Z" transform="translate(408.441 3089.148)"/><circle class="b" cx="5.203" cy="5.203" r="5.203" transform="translate(975.6 3404.088)"/><path class="b" d="M545.37,320.143a5.2,5.2,0,1,0,5.2-5.2A5.2,5.2,0,0,0,545.37,320.143Z" transform="translate(413.096 3089.148)"/><path class="b" d="M529.4,320.143a5.2,5.2,0,1,0,5.2-5.2A5.2,5.2,0,0,0,529.4,320.143Z" transform="translate(411.932 3089.148)"/><path class="b" d="M609.24,320.143a5.2,5.2,0,1,0,5.2-5.2A5.2,5.2,0,0,0,609.24,320.143Z" transform="translate(417.751 3089.148)"/><path class="b" d="M593.28,320.143a5.2,5.2,0,1,0,5.2-5.2A5.2,5.2,0,0,0,593.28,320.143Z" transform="translate(416.587 3089.148)"/><circle class="b" cx="5.203" cy="5.203" r="5.203" transform="translate(992.734 3404.088)"/><circle class="b" cx="5.203" cy="5.203" r="5.203" transform="translate(1061.258 3404.088)"/><circle class="b" cx="5.203" cy="5.203" r="5.203" transform="translate(1044.124 3404.088)"/><circle class="b" cx="5.203" cy="5.203" r="5.203" transform="translate(1129.794 3404.088)"/><circle class="b" cx="5.203" cy="5.203" r="5.203" transform="translate(1112.66 3404.088)"/><path class="b" d="M673.12,320.143a5.2,5.2,0,1,0,5.2-5.2A5.2,5.2,0,0,0,673.12,320.143Z" transform="translate(422.406 3089.148)"/><path class="b" d="M736.99,320.143a5.2,5.2,0,1,0,5.2-5.2A5.2,5.2,0,0,0,736.99,320.143Z" transform="translate(427.061 3089.148)"/><path class="b" d="M721.03,320.143a5.2,5.2,0,1,0,5.2-5.2A5.2,5.2,0,0,0,721.03,320.143Z" transform="translate(425.898 3089.148)"/><circle class="b" cx="5.203" cy="5.203" r="5.203" transform="translate(393.091 3386.128)"/><path class="b" d="M44.777,336.884a5.2,5.2,0,1,0-5.2,5.2A5.2,5.2,0,0,0,44.777,336.884Z" transform="translate(375.855 3054.448)"/><circle class="b" cx="5.203" cy="5.203" r="5.203" transform="translate(427.359 3386.128)"/><circle class="b" cx="5.203" cy="5.203" r="5.203" transform="translate(444.493 3386.128)"/><path class="b" d="M108.647,336.884a5.2,5.2,0,1,0-5.2,5.2A5.2,5.2,0,0,0,108.647,336.884Z" transform="translate(380.51 3054.448)"/><circle class="b" cx="5.203" cy="5.203" r="5.203" transform="translate(495.884 3386.128)"/><circle class="b" cx="5.203" cy="5.203" r="5.203" transform="translate(513.018 3386.128)"/><circle class="b" cx="5.203" cy="5.203" r="5.203" transform="translate(530.151 3386.128)"/><circle class="b" cx="5.203" cy="5.203" r="5.203" transform="translate(564.419 3386.128)"/><circle class="b" cx="5.203" cy="5.203" r="5.203" transform="translate(581.553 3386.128)"/><circle class="b" cx="5.203" cy="5.203" r="5.203" transform="translate(598.676 3386.128)"/><path class="b" d="M236.4,336.884a5.2,5.2,0,1,0-5.2,5.2A5.2,5.2,0,0,0,236.4,336.884Z" transform="translate(389.82 3054.448)"/><circle class="b" cx="5.203" cy="5.203" r="5.203" transform="translate(632.944 3386.128)"/><circle class="b" cx="5.203" cy="5.203" r="5.203" transform="translate(650.078 3386.128)"/><circle class="b" cx="5.203" cy="5.203" r="5.203" transform="translate(667.212 3386.128)"/><circle class="b" cx="5.203" cy="5.203" r="5.203" transform="translate(718.613 3386.128)"/><path class="b" d="M348.177,336.884a5.2,5.2,0,1,0-5.2,5.2A5.2,5.2,0,0,0,348.177,336.884Z" transform="translate(397.966 3054.448)"/><path class="b" d="M364.147,336.884a5.2,5.2,0,1,0-5.2,5.2A5.2,5.2,0,0,0,364.147,336.884Z" transform="translate(399.13 3054.448)"/><circle class="b" cx="5.203" cy="5.203" r="5.203" transform="translate(770.004 3386.128)"/><path class="b" d="M412.057,336.884a5.2,5.2,0,1,0-5.2,5.2A5.2,5.2,0,0,0,412.057,336.884Z" transform="translate(402.622 3054.448)"/><path class="b" d="M428.027,336.884a5.2,5.2,0,1,0-5.2,5.2A5.2,5.2,0,0,0,428.027,336.884Z" transform="translate(403.786 3054.448)"/><circle class="b" cx="5.203" cy="5.203" r="5.203" transform="translate(838.539 3386.128)"/><circle class="b" cx="5.203" cy="5.203" r="5.203" transform="translate(855.673 3386.128)"/><path class="b" d="M475.927,336.884a5.2,5.2,0,1,0-5.2,5.2A5.2,5.2,0,0,0,475.927,336.884Z" transform="translate(407.277 3054.448)"/><path class="b" d="M491.9,336.884a5.2,5.2,0,1,0-5.2,5.2A5.2,5.2,0,0,0,491.9,336.884Z" transform="translate(408.44 3054.448)"/><circle class="b" cx="5.203" cy="5.203" r="5.203" transform="translate(907.064 3386.128)"/><circle class="b" cx="5.203" cy="5.203" r="5.203" transform="translate(924.198 3386.128)"/><path class="b" d="M539.807,336.884a5.2,5.2,0,1,0-5.2,5.2A5.2,5.2,0,0,0,539.807,336.884Z" transform="translate(411.932 3054.448)"/><path class="b" d="M555.777,336.884a5.2,5.2,0,1,0-5.2,5.2A5.2,5.2,0,0,0,555.777,336.884Z" transform="translate(413.096 3054.448)"/><circle class="b" cx="5.203" cy="5.203" r="5.203" transform="translate(975.6 3386.128)"/><circle class="b" cx="5.203" cy="5.203" r="5.203" transform="translate(992.734 3386.128)"/><path class="b" d="M603.677,336.884a5.2,5.2,0,1,0-5.2,5.2A5.2,5.2,0,0,0,603.677,336.884Z" transform="translate(416.587 3054.448)"/><path class="b" d="M619.647,336.884a5.2,5.2,0,1,0-5.2,5.2A5.2,5.2,0,0,0,619.647,336.884Z" transform="translate(417.751 3054.448)"/><circle class="b" cx="5.203" cy="5.203" r="5.203" transform="translate(1061.258 3386.128)"/><path class="b" d="M667.557,336.884a5.2,5.2,0,1,0-5.2,5.2A5.2,5.2,0,0,0,667.557,336.884Z" transform="translate(421.242 3054.448)"/><path class="b" d="M683.527,336.884a5.2,5.2,0,1,0-5.2,5.2A5.2,5.2,0,0,0,683.527,336.884Z" transform="translate(422.406 3054.448)"/><circle class="b" cx="5.203" cy="5.203" r="5.203" transform="translate(1112.66 3386.128)"/><circle class="b" cx="5.203" cy="5.203" r="5.203" transform="translate(1129.794 3386.128)"/><path class="b" d="M731.427,336.884a5.2,5.2,0,1,0-5.2,5.2A5.2,5.2,0,0,0,731.427,336.884Z" transform="translate(425.897 3054.448)"/><path class="b" d="M747.4,336.884a5.2,5.2,0,1,0-5.2,5.2A5.2,5.2,0,0,0,747.4,336.884Z" transform="translate(427.061 3054.448)"/><g transform="translate(375.957 3368.63)"><path class="b" d="M34.37,353.193a5.2,5.2,0,1,0,5.2-5.2A5.2,5.2,0,0,0,34.37,353.193Z" transform="translate(-0.102 -347.99)"/><circle class="b" cx="5.203" cy="5.203" r="5.203" transform="translate(17.134 0)"/><circle class="b" cx="5.203" cy="5.203" r="5.203" transform="translate(0 0)"/></g><circle class="b" cx="5.203" cy="5.203" r="5.203" transform="translate(444.493 3368.63)"/><circle class="b" cx="5.203" cy="5.203" r="5.203" transform="translate(427.359 3368.63)"/><g transform="translate(478.761 3368.63)"><circle class="b" cx="5.203" cy="5.203" r="5.203" transform="translate(34.257 0)"/><circle class="b" cx="5.203" cy="5.203" r="5.203" transform="translate(17.123 0)"/><path class="b" d="M98.25,353.193a5.2,5.2,0,1,0,5.2-5.2A5.2,5.2,0,0,0,98.25,353.193Z" transform="translate(-98.25 -347.99)"/></g><path class="b" d="M226,353.193a5.2,5.2,0,1,0,5.2-5.2A5.2,5.2,0,0,0,226,353.193Z" transform="translate(389.821 3020.64)"/><circle class="b" cx="5.203" cy="5.203" r="5.203" transform="translate(598.676 3368.63)"/><circle class="b" cx="5.203" cy="5.203" r="5.203" transform="translate(581.553 3368.63)"/><circle class="b" cx="5.203" cy="5.203" r="5.203" transform="translate(667.212 3368.63)"/><circle class="b" cx="5.203" cy="5.203" r="5.203" transform="translate(650.078 3368.63)"/><circle class="b" cx="5.203" cy="5.203" r="5.203" transform="translate(632.944 3368.63)"/><circle class="b" cx="5.203" cy="5.203" r="5.203" transform="translate(718.613 3368.63)"/><circle class="b" cx="5.203" cy="5.203" r="5.203" transform="translate(701.479 3368.63)"/><path class="b" d="M289.87,353.193a5.2,5.2,0,1,0,5.2-5.2A5.2,5.2,0,0,0,289.87,353.193Z" transform="translate(394.476 3020.64)"/><circle class="b" cx="5.203" cy="5.203" r="5.203" transform="translate(770.004 3368.63)"/><path class="b" d="M353.75,353.193a5.2,5.2,0,1,0,5.2-5.2A5.2,5.2,0,0,0,353.75,353.193Z" transform="translate(399.131 3020.64)"/><path class="b" d="M337.78,353.193a5.2,5.2,0,1,0,5.2-5.2A5.2,5.2,0,0,0,337.78,353.193Z" transform="translate(397.967 3020.64)"/><path class="b" d="M417.62,353.193a5.2,5.2,0,1,0,5.2-5.2A5.2,5.2,0,0,0,417.62,353.193Z" transform="translate(403.786 3020.64)"/><path class="b" d="M401.65,353.193a5.2,5.2,0,1,0,5.2-5.2A5.2,5.2,0,0,0,401.65,353.193Z" transform="translate(402.622 3020.64)"/><circle class="b" cx="5.203" cy="5.203" r="5.203" transform="translate(787.138 3368.63)"/><path class="b" d="M465.53,353.193a5.2,5.2,0,1,0,5.2-5.2A5.2,5.2,0,0,0,465.53,353.193Z" transform="translate(407.277 3020.64)"/><circle class="b" cx="5.203" cy="5.203" r="5.203" transform="translate(855.673 3368.63)"/><circle class="b" cx="5.203" cy="5.203" r="5.203" transform="translate(838.539 3368.63)"/><circle class="b" cx="5.203" cy="5.203" r="5.203" transform="translate(975.6 3368.63)"/><path class="b" d="M545.37,353.193a5.2,5.2,0,1,0,5.2-5.2A5.2,5.2,0,0,0,545.37,353.193Z" transform="translate(413.096 3020.64)"/><path class="b" d="M529.4,353.193a5.2,5.2,0,1,0,5.2-5.2A5.2,5.2,0,0,0,529.4,353.193Z" transform="translate(411.932 3020.64)"/><path class="b" d="M609.24,353.193a5.2,5.2,0,1,0,5.2-5.2A5.2,5.2,0,0,0,609.24,353.193Z" transform="translate(417.751 3020.64)"/><path class="b" d="M593.28,353.193a5.2,5.2,0,1,0,5.2-5.2A5.2,5.2,0,0,0,593.28,353.193Z" transform="translate(416.587 3020.64)"/><path class="b" d="M657.15,353.193a5.2,5.2,0,1,0,5.2-5.2A5.2,5.2,0,0,0,657.15,353.193Z" transform="translate(421.242 3020.64)"/><circle class="b" cx="5.203" cy="5.203" r="5.203" transform="translate(1061.258 3368.63)"/><circle class="b" cx="5.203" cy="5.203" r="5.203" transform="translate(1044.124 3368.63)"/><circle class="b" cx="5.203" cy="5.203" r="5.203" transform="translate(1129.794 3368.63)"/><circle class="b" cx="5.203" cy="5.203" r="5.203" transform="translate(1112.66 3368.63)"/><path class="b" d="M673.12,353.193a5.2,5.2,0,1,0,5.2-5.2A5.2,5.2,0,0,0,673.12,353.193Z" transform="translate(422.406 3020.64)"/><circle class="b" cx="5.203" cy="5.203" r="5.203" transform="translate(375.957 3350.659)"/><path class="b" d="M44.777,369.943a5.2,5.2,0,1,0-5.2,5.2A5.2,5.2,0,0,0,44.777,369.943Z" transform="translate(375.855 2985.919)"/><circle class="b" cx="5.203" cy="5.203" r="5.203" transform="translate(427.359 3350.659)"/><circle class="b" cx="5.203" cy="5.203" r="5.203" transform="translate(444.493 3350.659)"/><path class="b" d="M108.647,369.943a5.2,5.2,0,1,0-5.2,5.2A5.2,5.2,0,0,0,108.647,369.943Z" transform="translate(380.51 2985.919)"/><circle class="b" cx="5.203" cy="5.203" r="5.203" transform="translate(495.884 3350.659)"/><circle class="b" cx="5.203" cy="5.203" r="5.203" transform="translate(513.018 3350.659)"/><circle class="b" cx="5.203" cy="5.203" r="5.203" transform="translate(530.151 3350.659)"/><path class="b" d="M172.527,369.943a5.2,5.2,0,1,0-5.2,5.2A5.2,5.2,0,0,0,172.527,369.943Z" transform="translate(385.165 2985.919)"/><circle class="b" cx="5.203" cy="5.203" r="5.203" transform="translate(564.419 3350.659)"/><circle class="b" cx="5.203" cy="5.203" r="5.203" transform="translate(581.553 3350.659)"/><circle class="b" cx="5.203" cy="5.203" r="5.203" transform="translate(598.676 3350.659)"/><circle class="b" cx="5.203" cy="5.203" r="5.203" transform="translate(632.944 3350.659)"/><circle class="b" cx="5.203" cy="5.203" r="5.203" transform="translate(650.078 3350.659)"/><circle class="b" cx="5.203" cy="5.203" r="5.203" transform="translate(667.212 3350.659)"/><path class="b" d="M300.277,369.943a5.2,5.2,0,1,0-5.2,5.2A5.2,5.2,0,0,0,300.277,369.943Z" transform="translate(394.476 2985.919)"/><circle class="b" cx="5.203" cy="5.203" r="5.203" transform="translate(701.479 3350.659)"/><circle class="b" cx="5.203" cy="5.203" r="5.203" transform="translate(718.613 3350.659)"/><path class="b" d="M348.177,369.943a5.2,5.2,0,1,0-5.2,5.2A5.2,5.2,0,0,0,348.177,369.943Z" transform="translate(397.966 2985.919)"/><path class="b" d="M364.147,369.943a5.2,5.2,0,1,0-5.2,5.2A5.2,5.2,0,0,0,364.147,369.943Z" transform="translate(399.13 2985.919)"/><circle class="b" cx="5.203" cy="5.203" r="5.203" transform="translate(787.138 3350.659)"/><path class="b" d="M412.057,369.943a5.2,5.2,0,1,0-5.2,5.2A5.2,5.2,0,0,0,412.057,369.943Z" transform="translate(402.622 2985.919)"/><circle class="b" cx="5.203" cy="5.203" r="5.203" transform="translate(838.539 3350.659)"/><circle class="b" cx="5.203" cy="5.203" r="5.203" transform="translate(855.673 3350.659)"/><path class="b" d="M475.927,369.943a5.2,5.2,0,1,0-5.2,5.2A5.2,5.2,0,0,0,475.927,369.943Z" transform="translate(407.277 2985.919)"/><circle class="b" cx="5.203" cy="5.203" r="5.203" transform="translate(924.198 3350.659)"/><path class="b" d="M539.807,369.943a5.2,5.2,0,1,0-5.2,5.2A5.2,5.2,0,0,0,539.807,369.943Z" transform="translate(411.932 2985.919)"/><path class="b" d="M555.777,369.943a5.2,5.2,0,1,0-5.2,5.2A5.2,5.2,0,0,0,555.777,369.943Z" transform="translate(413.096 2985.919)"/><circle class="b" cx="5.203" cy="5.203" r="5.203" transform="translate(975.6 3350.659)"/><circle class="b" cx="5.203" cy="5.203" r="5.203" transform="translate(992.734 3350.659)"/><path class="b" d="M603.677,369.943a5.2,5.2,0,1,0-5.2,5.2A5.2,5.2,0,0,0,603.677,369.943Z" transform="translate(416.587 2985.919)"/><path class="b" d="M619.647,369.943a5.2,5.2,0,1,0-5.2,5.2A5.2,5.2,0,0,0,619.647,369.943Z" transform="translate(417.751 2985.919)"/><circle class="b" cx="5.203" cy="5.203" r="5.203" transform="translate(1061.258 3350.659)"/><path class="b" d="M667.557,369.943a5.2,5.2,0,1,0-5.2,5.2A5.2,5.2,0,0,0,667.557,369.943Z" transform="translate(421.242 2985.919)"/><circle class="b" cx="5.203" cy="5.203" r="5.203" transform="translate(1112.66 3350.659)"/><circle class="b" cx="5.203" cy="5.203" r="5.203" transform="translate(1129.794 3350.659)"/><path class="b" d="M731.427,369.943a5.2,5.2,0,1,0-5.2,5.2A5.2,5.2,0,0,0,731.427,369.943Z" transform="translate(425.897 2985.919)"/><path class="b" d="M747.4,369.943a5.2,5.2,0,1,0-5.2,5.2A5.2,5.2,0,0,0,747.4,369.943Z" transform="translate(427.061 2985.919)"/><circle class="b" cx="5.203" cy="5.203" r="5.203" transform="translate(1112.66 3687.106)"/><path class="b" d="M731.427,73.633a5.2,5.2,0,1,0-5.2,5.2A5.2,5.2,0,0,0,731.427,73.633Z" transform="translate(425.897 3618.677)"/><path class="b" d="M747.4,73.633a5.2,5.2,0,1,0-5.2,5.2A5.2,5.2,0,0,0,747.4,73.633Z" transform="translate(427.061 3618.677)"/><circle class="b" cx="5.203" cy="5.203" r="5.203" transform="translate(1129.794 3722.812)"/><circle class="b" cx="5.203" cy="5.203" r="5.203" transform="translate(1112.66 3665.625)"/><path class="b" d="M673.12,89.943a5.2,5.2,0,1,0,5.2-5.2A5.2,5.2,0,0,0,673.12,89.943Z" transform="translate(422.406 3580.885)"/><path class="b" d="M736.99,38.353a5.2,5.2,0,1,0,5.2-5.2A5.2,5.2,0,0,0,736.99,38.353Z" transform="translate(427.061 3691.808)"/><path class="b" d="M721.03,13.353a5.2,5.2,0,1,0,5.2-5.2A5.2,5.2,0,0,0,721.03,13.353Z" transform="translate(425.898 3743.63)"/><path class="b" d="M683.527,30.353a5.2,5.2,0,1,0-5.2,5.2A5.2,5.2,0,0,0,683.527,30.353Z" transform="translate(422.406 3708.391)"/><circle class="b" cx="5.203" cy="5.203" r="5.203" transform="translate(1112.66 3646.783)"/><circle class="b" cx="5.203" cy="5.203" r="5.203" transform="translate(1129.794 3646.783)"/><path class="b" d="M731.427,106.693a5.2,5.2,0,1,0-5.2,5.2A5.2,5.2,0,0,0,731.427,106.693Z" transform="translate(425.897 3545.293)"/><path class="b" d="M747.4,106.693a5.2,5.2,0,1,0-5.2,5.2A5.2,5.2,0,0,0,747.4,106.693Z" transform="translate(427.061 3545.293)"/><circle class="b" cx="5.203" cy="5.203" r="5.203" transform="translate(1129.794 3628.448)"/><circle class="b" cx="5.203" cy="5.203" r="5.203" transform="translate(1112.66 3628.448)"/><path class="b" d="M673.12,122.993a5.2,5.2,0,1,0,5.2-5.2A5.2,5.2,0,0,0,673.12,122.993Z" transform="translate(422.406 3510.658)"/><path class="b" d="M736.99,122.993a5.2,5.2,0,1,0,5.2-5.2A5.2,5.2,0,0,0,736.99,122.993Z" transform="translate(427.061 3510.658)"/><path class="b" d="M721.03,122.993a5.2,5.2,0,1,0,5.2-5.2A5.2,5.2,0,0,0,721.03,122.993Z" transform="translate(425.898 3510.658)"/><path class="b" d="M683.527,139.743a5.2,5.2,0,1,0-5.2,5.2A5.2,5.2,0,0,0,683.527,139.743Z" transform="translate(422.406 3475.067)"/><circle class="b" cx="5.203" cy="5.203" r="5.203" transform="translate(1112.66 3609.606)"/><circle class="b" cx="5.203" cy="5.203" r="5.203" transform="translate(1129.794 3609.606)"/><path class="b" d="M731.427,139.743a5.2,5.2,0,1,0-5.2,5.2A5.2,5.2,0,0,0,731.427,139.743Z" transform="translate(425.897 3475.067)"/><path class="b" d="M747.4,139.743a5.2,5.2,0,1,0-5.2,5.2A5.2,5.2,0,0,0,747.4,139.743Z" transform="translate(427.061 3475.067)"/><circle class="b" cx="5.203" cy="5.203" r="5.203" transform="translate(770.004 3591.26)"/><path class="b" d="M401.65,81.353a5.2,5.2,0,1,0,5.2-5.2A5.2,5.2,0,0,0,401.65,81.353Z" transform="translate(402.622 3599.138)"/><circle class="b" cx="5.203" cy="5.203" r="5.203" transform="translate(787.138 3591.26)"/><circle class="b" cx="5.203" cy="5.203" r="5.203" transform="translate(855.673 3638.167)"/><circle class="b" cx="5.203" cy="5.203" r="5.203" transform="translate(924.198 3660.833)"/><circle class="b" cx="5.203" cy="5.203" r="5.203" transform="translate(907.064 3591.26)"/><path class="b" d="M481.5,62.2a5.2,5.2,0,1,0,5.2-5.2A5.2,5.2,0,0,0,481.5,62.2Z" transform="translate(408.441 3642.37)"/><circle class="b" cx="5.203" cy="5.203" r="5.203" transform="translate(975.6 3591.26)"/><path class="b" d="M545.37,156.053a5.2,5.2,0,1,0,5.2-5.2A5.2,5.2,0,0,0,545.37,156.053Z" transform="translate(413.096 3440.41)"/><path class="b" d="M529.4,156.053a5.2,5.2,0,1,0,5.2-5.2A5.2,5.2,0,0,0,529.4,156.053Z" transform="translate(411.932 3440.41)"/><path class="b" d="M609.24,114.353a5.2,5.2,0,1,0,5.2-5.2A5.2,5.2,0,0,0,609.24,114.353Z" transform="translate(417.751 3529.017)"/><path class="b" d="M593.28,156.053a5.2,5.2,0,1,0,5.2-5.2A5.2,5.2,0,0,0,593.28,156.053Z" transform="translate(416.587 3440.41)"/><circle class="b" cx="5.203" cy="5.203" r="5.203" transform="translate(992.734 3591.26)"/><path class="b" d="M657.15,156.053a5.2,5.2,0,1,0,5.2-5.2A5.2,5.2,0,0,0,657.15,156.053Z" transform="translate(421.242 3440.41)"/><circle class="b" cx="5.203" cy="5.203" r="5.203" transform="translate(1061.258 3591.26)"/><circle class="b" cx="5.203" cy="5.203" r="5.203" transform="translate(1044.124 3591.26)"/><circle class="b" cx="5.203" cy="5.203" r="5.203" transform="translate(1129.794 3591.26)"/><circle class="b" cx="5.203" cy="5.203" r="5.203" transform="translate(1112.66 3591.26)"/><path class="b" d="M673.12,156.053a5.2,5.2,0,1,0,5.2-5.2A5.2,5.2,0,0,0,673.12,156.053Z" transform="translate(422.406 3440.41)"/><path class="b" d="M721.03,156.053a5.2,5.2,0,1,0,5.2-5.2A5.2,5.2,0,0,0,721.03,156.053Z" transform="translate(425.898 3440.41)"/><circle class="b" cx="5.203" cy="5.203" r="5.203" transform="translate(770.004 3572.429)"/><circle class="b" cx="5.203" cy="5.203" r="5.203" transform="translate(787.138 3572.429)"/><path class="b" d="M412.057,172.794a5.2,5.2,0,1,0-5.2,5.2A5.2,5.2,0,0,0,412.057,172.794Z" transform="translate(402.622 3404.839)"/><path class="b" d="M428.027,172.794a5.2,5.2,0,1,0-5.2,5.2A5.2,5.2,0,0,0,428.027,172.794Z" transform="translate(403.786 3404.839)"/><circle class="b" cx="5.203" cy="5.203" r="5.203" transform="translate(838.539 3572.429)"/><circle class="b" cx="5.203" cy="5.203" r="5.203" transform="translate(855.673 3572.429)"/><path class="b" d="M475.927,172.794a5.2,5.2,0,1,0-5.2,5.2A5.2,5.2,0,0,0,475.927,172.794Z" transform="translate(407.277 3404.839)"/><path class="b" d="M491.9,155.353a5.2,5.2,0,1,0-5.2,5.2A5.2,5.2,0,0,0,491.9,155.353Z" transform="translate(408.44 3441.897)"/><circle class="b" cx="5.203" cy="5.203" r="5.203" transform="translate(907.064 3572.429)"/><circle class="b" cx="5.203" cy="5.203" r="5.203" transform="translate(924.198 3572.429)"/><path class="b" d="M539.807,172.794a5.2,5.2,0,1,0-5.2,5.2A5.2,5.2,0,0,0,539.807,172.794Z" transform="translate(411.932 3404.839)"/><path class="b" d="M555.777,172.794a5.2,5.2,0,1,0-5.2,5.2A5.2,5.2,0,0,0,555.777,172.794Z" transform="translate(413.096 3404.839)"/><circle class="b" cx="5.203" cy="5.203" r="5.203" transform="translate(975.6 3733.541)"/><circle class="b" cx="5.203" cy="5.203" r="5.203" transform="translate(992.734 3572.429)"/><path class="b" d="M603.677,172.794a5.2,5.2,0,1,0-5.2,5.2A5.2,5.2,0,0,0,603.677,172.794Z" transform="translate(416.587 3404.839)"/><path class="b" d="M619.647,172.794a5.2,5.2,0,1,0-5.2,5.2A5.2,5.2,0,0,0,619.647,172.794Z" transform="translate(417.751 3404.839)"/><circle class="b" cx="5.203" cy="5.203" r="5.203" transform="translate(1044.124 3572.429)"/><circle class="b" cx="5.203" cy="5.203" r="5.203" transform="translate(1061.258 3572.429)"/><path class="b" d="M667.557,172.794a5.2,5.2,0,1,0-5.2,5.2A5.2,5.2,0,0,0,667.557,172.794Z" transform="translate(421.242 3404.839)"/><path class="b" d="M683.527,172.794a5.2,5.2,0,1,0-5.2,5.2A5.2,5.2,0,0,0,683.527,172.794Z" transform="translate(422.406 3404.839)"/><circle class="b" cx="5.203" cy="5.203" r="5.203" transform="translate(1112.66 3572.429)"/><circle class="b" cx="5.203" cy="5.203" r="5.203" transform="translate(1129.794 3572.429)"/><path class="b" d="M731.427,172.794a5.2,5.2,0,1,0-5.2,5.2A5.2,5.2,0,0,0,731.427,172.794Z" transform="translate(425.897 3404.839)"/><path class="b" d="M747.4,172.794a5.2,5.2,0,1,0-5.2,5.2A5.2,5.2,0,0,0,747.4,172.794Z" transform="translate(427.061 3404.839)"/><circle class="b" cx="5.203" cy="5.203" r="5.203" transform="translate(718.613 3614.545)"/><circle class="b" cx="5.203" cy="5.203" r="5.203" transform="translate(770.004 3554.082)"/><path class="b" d="M353.75,189.1a5.2,5.2,0,1,0,5.2-5.2A5.2,5.2,0,0,0,353.75,189.1Z" transform="translate(399.131 3370.182)"/><path class="b" d="M337.78,189.1a5.2,5.2,0,1,0,5.2-5.2A5.2,5.2,0,0,0,337.78,189.1Z" transform="translate(397.967 3370.182)"/><path class="b" d="M417.62,189.1a5.2,5.2,0,1,0,5.2-5.2A5.2,5.2,0,0,0,417.62,189.1Z" transform="translate(403.786 3370.182)"/><path class="b" d="M401.65,189.1a5.2,5.2,0,1,0,5.2-5.2A5.2,5.2,0,0,0,401.65,189.1Z" transform="translate(402.622 3370.182)"/><circle class="b" cx="5.203" cy="5.203" r="5.203" transform="translate(787.138 3554.082)"/><path class="b" d="M465.53,189.1a5.2,5.2,0,1,0,5.2-5.2A5.2,5.2,0,0,0,465.53,189.1Z" transform="translate(407.277 3370.182)"/><circle class="b" cx="5.203" cy="5.203" r="5.203" transform="translate(838.539 3554.082)"/><circle class="b" cx="5.203" cy="5.203" r="5.203" transform="translate(924.198 3554.082)"/><circle class="b" cx="5.203" cy="5.203" r="5.203" transform="translate(907.064 3554.082)"/><path class="b" d="M481.5,189.1a5.2,5.2,0,1,0,5.2-5.2A5.2,5.2,0,0,0,481.5,189.1Z" transform="translate(408.441 3370.182)"/><circle class="b" cx="5.203" cy="5.203" r="5.203" transform="translate(975.6 3554.082)"/><path class="b" d="M529.4,189.1a5.2,5.2,0,1,0,5.2-5.2A5.2,5.2,0,0,0,529.4,189.1Z" transform="translate(411.932 3370.182)"/><path class="b" d="M609.24,189.1a5.2,5.2,0,1,0,5.2-5.2A5.2,5.2,0,0,0,609.24,189.1Z" transform="translate(417.751 3370.182)"/><path class="b" d="M593.28,189.1a5.2,5.2,0,1,0,5.2-5.2A5.2,5.2,0,0,0,593.28,189.1Z" transform="translate(416.587 3370.182)"/><circle class="b" cx="5.203" cy="5.203" r="5.203" transform="translate(992.734 3554.082)"/><path class="b" d="M657.15,189.1a5.2,5.2,0,1,0,5.2-5.2A5.2,5.2,0,0,0,657.15,189.1Z" transform="translate(421.242 3370.182)"/><circle class="b" cx="5.203" cy="5.203" r="5.203" transform="translate(1061.258 3647.166)"/><circle class="b" cx="5.203" cy="5.203" r="5.203" transform="translate(1044.124 3554.082)"/><circle class="b" cx="5.203" cy="5.203" r="5.203" transform="translate(1129.794 3554.082)"/><circle class="b" cx="5.203" cy="5.203" r="5.203" transform="translate(1112.66 3554.082)"/><path class="b" d="M673.12,189.1a5.2,5.2,0,1,0,5.2-5.2A5.2,5.2,0,0,0,673.12,189.1Z" transform="translate(422.406 3370.182)"/><path class="b" d="M736.99,189.1a5.2,5.2,0,1,0,5.2-5.2A5.2,5.2,0,0,0,736.99,189.1Z" transform="translate(427.061 3370.182)"/><path class="b" d="M721.03,189.1a5.2,5.2,0,1,0,5.2-5.2A5.2,5.2,0,0,0,721.03,189.1Z" transform="translate(425.898 3370.182)"/><rect class="b" width="10.364" height="10.364" transform="translate(752.881 3480.998)"/><rect class="b" width="10.364" height="10.364" transform="translate(752.881 3639.977)"/><rect class="b" width="10.364" height="10.364" transform="translate(427.295 3403.885)"/><rect class="b" width="10.364" height="10.364" transform="translate(667.619 3403.885)"/><rect class="b" width="10.364" height="10.364" transform="translate(839.097 3425.396)"/><rect class="b" width="10.364" height="10.364" transform="translate(956.469 3414.91) rotate(-45)"/><rect class="b" width="10.364" height="10.364" transform="translate(785.141 3414.907) rotate(-45)"/><rect class="b" width="10.364" height="10.364" transform="translate(699.349 3391.326) rotate(-45)"/><rect class="b" width="10.364" height="10.364" transform="translate(699.349 3645.289) rotate(-45)"/><rect class="b" width="10.364" height="10.364" transform="translate(890.059 3536.454)"/><rect class="b" width="10.364" height="10.364" transform="translate(890.059 3352.526)"/><rect class="b" width="10.364" height="10.364" transform="translate(958.369 3517.826)"/><rect class="b" width="10.364" height="10.364" transform="translate(924.037 3461.583)"/><rect class="b" width="10.364" height="10.364" transform="translate(1009.867 3517.826)"/><rect class="b" width="10.364" height="10.364" transform="translate(528.026 3584.176) rotate(-45)"/></g></svg>