<svg xmlns="http://www.w3.org/2000/svg" xmlns:xlink="http://www.w3.org/1999/xlink" width="103.113" height="110.112" viewBox="0 0 103.113 110.112">
  <defs>
    <filter id="Path_7871" x="31.041" y="45.653" width="61.717" height="61.703" filterUnits="userSpaceOnUse">
      <feOffset dx="7" dy="18" input="SourceAlpha"/>
      <feGaussianBlur stdDeviation="10" result="blur"/>
      <feFlood flood-opacity="0.161"/>
      <feComposite operator="in" in2="blur"/>
      <feComposite in="SourceGraphic"/>
    </filter>
    <filter id="Path_7872" x="0" y="7" width="103.113" height="103.112" filterUnits="userSpaceOnUse">
      <feOffset dx="7" dy="18" input="SourceAlpha"/>
      <feGaussianBlur stdDeviation="10" result="blur-2"/>
      <feFlood flood-opacity="0.161"/>
      <feComposite operator="in" in2="blur-2"/>
      <feComposite in="SourceGraphic"/>
    </filter>
    <filter id="Path_7873" x="29.484" y="33.837" width="65.07" height="68.776" filterUnits="userSpaceOnUse">
      <feOffset dx="7" dy="18" input="SourceAlpha"/>
      <feGaussianBlur stdDeviation="10" result="blur-3"/>
      <feFlood flood-opacity="0.161"/>
      <feComposite operator="in" in2="blur-3"/>
      <feComposite in="SourceGraphic"/>
    </filter>
    <filter id="Path_7874" x="21.561" y="16.941" width="61.741" height="61.704" filterUnits="userSpaceOnUse">
      <feOffset dx="7" dy="18" input="SourceAlpha"/>
      <feGaussianBlur stdDeviation="10" result="blur-4"/>
      <feFlood flood-opacity="0.161"/>
      <feComposite operator="in" in2="blur-4"/>
      <feComposite in="SourceGraphic"/>
    </filter>
  </defs>
  <g id="Group_7664" data-name="Group 7664" transform="translate(-9638 -10388)">
    <rect id="Rectangle_2289" data-name="Rectangle 2289" width="82" height="82" transform="translate(9642 10388)" fill="none"/>
    <g id="planet-earth" transform="translate(9661 10406.999)">
      <g id="Group_7183" data-name="Group 7183" transform="translate(31.041 38.654)">
        <g id="Group_7182" data-name="Group 7182">
          <g transform="matrix(1, 0, 0, 1, -54.04, -57.65)" filter="url(#Path_7871)">
            <path id="Path_7871-2" data-name="Path 7871" d="M370.233,459.455a.842.842,0,0,0-1.151-.306l-.032.019a.842.842,0,1,0,.845,1.457l.032-.019A.842.842,0,0,0,370.233,459.455Z" transform="translate(-314.59 -401.38)" fill="#454545"/>
          </g>
        </g>
      </g>
      <g id="Group_7185" data-name="Group 7185" transform="translate(0 0.001)">
        <g id="Group_7184" data-name="Group 7184" transform="translate(0 0)">
          <g transform="matrix(1, 0, 0, 1, -23, -19)" filter="url(#Path_7872)">
            <path id="Path_7872-2" data-name="Path 7872" d="M40.225,10.786a21.551,21.551,0,0,0-39.481,5.2A21.555,21.555,0,0,0,29.27,41.69a.842.842,0,1,0-.6-1.572,19.74,19.74,0,0,1-19-2.611l.754-3.938.364-.118a2.623,2.623,0,0,0,1.682-3.3L12.2,29.33a.93.93,0,0,1,0-.581,2.62,2.62,0,0,0-1.987-3.387l-1.9-.371L4.65,22.2a.842.842,0,0,0-.77-.131l-2.147.7a19.851,19.851,0,0,1,0-2.3c.085.079.14.133.174.168a.883.883,0,0,0,.823.422,12.23,12.23,0,0,0,1.509-.172c.71-.105,1.417-.223,1.424-.224a.842.842,0,0,0,.556-1.3L5.184,17.844l1.479-1.057a.843.843,0,0,0,.241-.266l2.292-4,.924-.99a3.557,3.557,0,0,0,.686-3.772A3.873,3.873,0,0,0,9.273,5.95,19.842,19.842,0,0,1,21.33,1.7l-1.5,1.886L14.251,5.541a.842.842,0,0,0-.5.473L12.194,9.789a.842.842,0,0,0,.093.81l2.274,3.186a8,8,0,0,0-1.021,1.267c-.166.236-.323.458-.431.583-.094.109-.189.215-.282.32a7.88,7.88,0,0,0-1.354,1.88,5.018,5.018,0,0,0,.416,5.072,4.726,4.726,0,0,0,4.462,1.915,6.556,6.556,0,0,0,.823-.166c.722-.179.951-.2,1.182.02.113.106.123.125.121.483a3.273,3.273,0,0,0,.075.834,2.661,2.661,0,0,0,.712,1.162,1.887,1.887,0,0,1,.305.39,2.1,2.1,0,0,1-.1,1.742l-.065.2a4.726,4.726,0,0,0,.618,3.379c.152.335.3.651.39.93.757,2.247,1.325,2.761,1.78,2.968a1.755,1.755,0,0,0,.735.156,4.708,4.708,0,0,0,3.062-1.842,2.588,2.588,0,0,0,.521-1.226,1.342,1.342,0,0,1,.108-.376,2.206,2.206,0,0,1,.276-.355,2.921,2.921,0,0,0,.689-1.144,1.853,1.853,0,0,1,.571-.9l.186-.2a2.7,2.7,0,0,0,.527-3.14c-.257-.831.193-1.362,1.281-2.375a9.1,9.1,0,0,0,1.337-1.44,1.818,1.818,0,0,0,.356-1.686c-.3-.706-1.079-.825-1.7-.921a2.79,2.79,0,0,1-.735-.172,3.981,3.981,0,0,1-1.148-1.739c-.061-.137-.122-.272-.183-.4-.109-.234-.219-.517-.335-.817a7.064,7.064,0,0,0-1.245-2.318A5.378,5.378,0,0,0,24.077,14.8c-.3-.08-.578-.156-.763-.225a.841.841,0,0,0-.484-.03,2.185,2.185,0,0,0-.9.372,1.046,1.046,0,0,0-.3.4,9.631,9.631,0,0,1-.993-.6l-.016-.011a1.194,1.194,0,0,0-.075-.81c-.47-.995-2.032-.917-2.34-.891-.175.015-.4.022-.631.031-.368.013-.774.028-1.177.073l.021-.058a2.153,2.153,0,0,1,2.022-1.422h.479a.842.842,0,0,0,0-1.684h-.479a3.843,3.843,0,0,0-3.259,1.818L13.929,10l1.236-3L20.613,5.1a.842.842,0,0,0,.38-.27l2.422-3.038a19.857,19.857,0,0,1,15.352,9.84,19.65,19.65,0,0,1,1.984,4.82l-.357.318a2.249,2.249,0,0,0-.749,1.636c0,.007,0,.014,0,.02l-.582-1.6a2.1,2.1,0,0,0-.379-.65l-1.037-1.214a2.11,2.11,0,0,0-1.607-.741h-1.27a1.219,1.219,0,0,0-1.015,1.9l.128.193a9.332,9.332,0,0,1-2.78,1.651l-1.741-3.334v-.744a.842.842,0,0,0-.261-.609l-1.567-1.5a.843.843,0,0,0-.3-.185l-1.411-.5a.842.842,0,1,0-.558,1.589l1.24.436,1.176,1.122v.59a.842.842,0,0,0,.1.39l2.179,4.174a.842.842,0,0,0,1.038.4l.634-.234a11.019,11.019,0,0,0,3.951-2.529.842.842,0,0,0,.105-1.062l-.045-.067h.4a.429.429,0,0,1,.326.15L37.4,17.266a.428.428,0,0,1,.077.132l1.145,3.148a.842.842,0,0,0,1.387.308l.545-.545a2.629,2.629,0,0,0,.7-1.266,19.939,19.939,0,0,1-7.4,18.133.842.842,0,0,0,1.04,1.325,21.555,21.555,0,0,0,5.336-27.715ZM3.982,23.81l3.472,2.64a.841.841,0,0,0,.348.156l2.093.409a.936.936,0,0,1,.71,1.21,2.6,2.6,0,0,0,0,1.626l.267.821a.937.937,0,0,1-.6,1.179l-.837.272a.842.842,0,0,0-.567.642l-.673,3.515a20.089,20.089,0,0,1-3.836-4.784,19.763,19.763,0,0,1-2.446-7.012ZM8.889,10.38,7.9,11.441a.845.845,0,0,0-.115.156L5.534,15.524l-2,1.429a.842.842,0,0,0-.206,1.159l.748,1.1c-.431.064-.818.117-1.075.145l-.155-.145c-.2-.186-.478-.434-.893-.8A19.9,19.9,0,0,1,7.885,7.149,2.189,2.189,0,0,1,9.249,8.4,1.868,1.868,0,0,1,8.889,10.38Zm6.865,4.6a5.4,5.4,0,0,1,1.884-.265c.255-.009.5-.018.711-.036a2.29,2.29,0,0,1,.359,0A.842.842,0,0,0,19.1,15.73c.158.085.378.231.611.386a4.852,4.852,0,0,0,2.1.981,1.4,1.4,0,0,0,1.144-.477l.036-.036a.9.9,0,0,0,.225-.276c.135.038.276.077.421.116a5.607,5.607,0,0,1,1.632.6,5.977,5.977,0,0,1,.9,1.769c.127.328.246.637.38.924.058.123.114.25.172.378a5.258,5.258,0,0,0,1.763,2.46,3.481,3.481,0,0,0,1.4.427l.183.029A8.142,8.142,0,0,1,29,24.135c-1.042.971-2.34,2.179-1.742,4.106.282.91.3,1.008-.158,1.5l-.173.186a3.46,3.46,0,0,0-.949,1.54,1.314,1.314,0,0,1-.343.535,3.759,3.759,0,0,0-.471.624,2.729,2.729,0,0,0-.3.895,1.031,1.031,0,0,1-.176.494,4.908,4.908,0,0,1-1.063.94,1.389,1.389,0,0,1-.706.281A6.007,6.007,0,0,1,22,33.26c-.121-.36-.289-.731-.452-1.089A3.61,3.61,0,0,1,21,30.006l.063-.193a3.678,3.678,0,0,0,.056-2.915,3.037,3.037,0,0,0-.613-.874,1.565,1.565,0,0,1-.322-.427,1.82,1.82,0,0,1-.028-.426,2.088,2.088,0,0,0-.654-1.724,2.712,2.712,0,0,0-2.737-.426,5.282,5.282,0,0,1-.614.128,3.025,3.025,0,0,1-2.9-1.225A3.334,3.334,0,0,1,13,18.554a6.393,6.393,0,0,1,1.09-1.48c.1-.11.2-.221.3-.335.164-.189.345-.446.536-.717A6.087,6.087,0,0,1,15.754,14.981Z" transform="translate(23 19)" fill="#454545"/>
          </g>
        </g>
      </g>
      <g id="Group_7187" data-name="Group 7187" transform="translate(29.485 26.838)">
        <g id="Group_7186" data-name="Group 7186">
          <g transform="matrix(1, 0, 0, 1, -52.48, -45.84)" filter="url(#Path_7873)">
            <path id="Path_7873-2" data-name="Path 7873" d="M355.191,320.864l-.405-1.527a.842.842,0,0,0-1.554-.186c-.092.17-.175.35-.256.525a3.618,3.618,0,0,1-.42.764,1.858,1.858,0,0,1-.494.293,2.315,2.315,0,0,0-1.4,1.363,2.467,2.467,0,0,0-.056,1.188.766.766,0,0,1-.022.5l-.008.02a2.834,2.834,0,0,0-.067,2.8,1.754,1.754,0,0,0,1.431.893,1.366,1.366,0,0,0,.225-.018c.859-.14,1.5-1.034,2.032-2.812l.99-3.338A.842.842,0,0,0,355.191,320.864Zm-2.611,3.315a5.108,5.108,0,0,1-.644,1.517c-.016-.02-.033-.043-.051-.069-.161-.229.08-.794.239-1.167l.008-.02a2.369,2.369,0,0,0,.138-1.4.883.883,0,0,1,0-.437c.033-.105.23-.207.528-.35.132-.064.277-.134.423-.218Z" transform="translate(-297.67 -272.87)" fill="#454545"/>
          </g>
        </g>
      </g>
      <g id="Group_7189" data-name="Group 7189" transform="translate(21.56 9.942)">
        <g id="Group_7188" data-name="Group 7188">
          <g transform="matrix(1, 0, 0, 1, -44.56, -28.94)" filter="url(#Path_7874)">
            <path id="Path_7874-2" data-name="Path 7874" d="M257.221,118.127l-.057-.02a.842.842,0,0,0-.557,1.589l.057.02a.842.842,0,1,0,.557-1.589Z" transform="translate(-211.48 -89.12)" fill="#454545"/>
          </g>
        </g>
      </g>
    </g>
  </g>
</svg>
