<svg xmlns="http://www.w3.org/2000/svg" width="128.466" height="33.531" viewBox="0 0 128.466 33.531"><defs><style>.a{fill:#0085d3;}.a,.b{fill-rule:evenodd;}.b{fill:#f36a10;}</style></defs><path class="a" d="M189.1,270.649h5.729V244.607H189.1v26.043Zm17.092-13.141v7.95h4.427a7.55,7.55,0,0,0,7.85-7.95,7.434,7.434,0,0,0-7.85-7.8H200.466v-5.045h10.157c8.157,0,13.8,5.675,13.838,13-.038,7.32-5.682,13-13.838,13H200.466V254.987h5.729v2.522ZM294.68,244.18a13.426,13.426,0,1,1-13.9,13.418,13.664,13.664,0,0,1,13.9-13.418Zm0,5.524a8.056,8.056,0,1,0,7.89,8.054,7.974,7.974,0,0,0-7.89-8.054Zm-64.61,20.946H249.9v-5.1H235.762v-5.469h14.07v-5.1H230.07v15.663ZM249.9,249.7v-5.1H230.07v5.1Zm5.572,20.946H275.3v-5.1H261.164v-5.469h14.07v-5.1H255.472v15.663ZM275.3,249.7v-5.1H255.472v5.1Z" transform="translate(-189.103 -237.484)"/><path class="b" d="M614.611,231.953a5.971,5.971,0,0,0,6.153-5.971v-.033a6.139,6.139,0,0,0-12.272.033v.033a5.916,5.916,0,0,0,6.12,5.938Zm.03-3.058a2.816,2.816,0,0,1-2.808-2.914v-.027a2.773,2.773,0,0,1,2.781-2.887,2.817,2.817,0,0,1,2.808,2.914v.026A2.772,2.772,0,0,1,614.641,228.9Z" transform="translate(-492.297 -220.011)"/></svg>