<svg xmlns="http://www.w3.org/2000/svg" width="158.899" height="30.01" viewBox="0 0 158.899 30.01"><defs><style>.a{fill:gray;}</style></defs><path class="a" d="M81.159,14.81A9.074,9.074,0,0,0,71.98,5.527h-.041v0a9.255,9.255,0,0,0-9.134,9.541,8.913,8.913,0,0,0,9.134,9.175c4.081,0,8.548-1.855,9.111-5.6l-3.174-.008c-.647,4.274-8.226,4.245-8.487.106-.043-.69-.043-2.595-.043-2.595H81.218a12.81,12.81,0,0,0-.059-1.335ZM69.412,13.795l.109-3.129s-.043-2.871,2.417-2.892c2.161.02,2.224,2.937,2.224,2.937l.086,3.086H69.412ZM143.311,0h6.609V23.4h-6.609Zm8.982,0H158.9V23.4h-6.607ZM31.5,5.554c-3.357,0-9.6,2.347-9.6,9.408,0,7.792,6.24,9.275,9.6,9.275s9.6-1.956,9.594-9.318c-.008-7.19-6.238-9.365-9.594-9.365Zm0,16.418c-1.814,0-2.5-2.783-2.5-7.03s.36-7.09,2.5-7.09c2.007,0,2.408,2.838,2.408,7.09S33.506,21.972,31.5,21.972ZM0,0H7.168V9.631h5.57V0h7.555V23.4H12.738V13.084H7.211V23.447H0V0M43.178,23.4V6.174H49.7V7.837a9.262,9.262,0,0,1,5.224-1.964c2.66,0,5.138,1.835,5.644,3.944a4.632,4.632,0,0,1,.139,1.216V23.406H54.272V12.048s.238-2.57-1.726-2.462a3.509,3.509,0,0,0-2.851,1.446V23.4H43.178"/><path class="a" d="M38.837,23.36a3.631,3.631,0,0,0,3.8,3.821,5.975,5.975,0,0,0,5.419-3.217c.664-1.5,8.229-20.575,8.229-20.575l5.007,17.229h5.4L69.455,10.3l3.283,10.319h5.136L82.279,3.389H79.3l-2.374,9.025L73.86,3.389H68.548l-2.677,9.283L63.15,3.389H53.738l-3.326,8.29L47.26,3.389H39.7s6.987,15.978,6.953,17.186a4.848,4.848,0,0,1-2.548,4.233h.023a3.12,3.12,0,0,0,.473-1.577,2.87,2.87,0,0,0-2.871-2.869,2.954,2.954,0,0,0-2.892,3.021l0-.023M101,11.982A9.074,9.074,0,0,0,91.821,2.7h-.045v0a9.259,9.259,0,0,0-9.134,9.541,8.914,8.914,0,0,0,9.134,9.175c4.084,0,8.55-1.855,9.113-5.6l-3.176-.008c-.647,4.274-8.226,4.245-8.484.106-.043-.69-.043-2.595-.043-2.595h11.872A12.81,12.81,0,0,0,101,11.982ZM89.25,10.966l.109-3.129s-.043-2.873,2.417-2.892C93.934,4.964,94,7.882,94,7.882l.086,3.086H89.25Z" transform="translate(40.698 2.828)"/></svg>