<svg xmlns="http://www.w3.org/2000/svg" width="187.816" height="35.471" viewBox="0 0 187.816 35.471"><defs><style>.a{fill:gray;}</style></defs><path class="a" d="M95.928,17.506A10.725,10.725,0,0,0,85.079,6.533h-.048v0c-6.3.027-10.8,5.2-10.8,11.278a10.535,10.535,0,0,0,10.8,10.844c4.824,0,10.1-2.193,10.769-6.623l-3.752-.01c-.765,5.052-9.724,5.018-10.031.126-.051-.816-.051-3.067-.051-3.067H96a15.145,15.145,0,0,0-.07-1.578Zm-13.885-1.2.128-3.7s-.051-3.394,2.856-3.418c2.554.024,2.629,3.471,2.629,3.471l.1,3.648H82.044ZM169.391,0H177.2V27.663h-7.811Zm10.617,0h7.809V27.663h-7.809ZM37.231,6.565c-3.967,0-11.343,2.774-11.343,11.12,0,9.21,7.376,10.963,11.343,10.963s11.35-2.312,11.34-11.014c-.01-8.5-7.373-11.069-11.34-11.069Zm0,19.406c-2.145,0-2.953-3.29-2.953-8.31s.426-8.38,2.953-8.38c2.372,0,2.847,3.355,2.847,8.38S39.6,25.971,37.231,25.971ZM0,0H8.472V11.384h6.584V0h8.93V27.663h-8.93v-12.2H8.523V27.713H0V0M51.036,27.663V7.3h7.707V9.264a10.948,10.948,0,0,1,6.175-2.321c3.144,0,6.073,2.169,6.671,4.662a5.475,5.475,0,0,1,.165,1.438V27.665H64.148V14.24s.281-3.038-2.041-2.91a4.147,4.147,0,0,0-3.369,1.709V27.663h-7.7"/><path class="a" d="M38.837,27.12a4.292,4.292,0,0,0,4.493,4.517,7.063,7.063,0,0,0,6.4-3.8c.784-1.774,9.726-24.32,9.726-24.32l5.918,20.364h6.381l3.268-12.2,3.88,12.2h6.071L90.185,3.515H86.663L83.858,14.182,80.234,3.515H73.955L70.791,14.487,67.574,3.515H56.449l-3.931,9.8-3.725-9.8H39.861S48.12,22.4,48.079,23.828a5.73,5.73,0,0,1-3.011,5h.027a3.688,3.688,0,0,0,.559-1.864,3.393,3.393,0,0,0-3.394-3.391,3.491,3.491,0,0,0-3.418,3.57l0-.027m73.472-13.449A10.726,10.726,0,0,0,101.463,2.7h-.053v0c-6.3.029-10.8,5.207-10.8,11.278a10.536,10.536,0,0,0,10.8,10.844c4.827,0,10.106-2.193,10.772-6.623l-3.754-.01c-.765,5.052-9.724,5.018-10.029.126-.051-.816-.051-3.067-.051-3.067h14.032a15.143,15.143,0,0,0-.07-1.578Zm-13.885-1.2.128-3.7s-.051-3.4,2.856-3.418c2.551.022,2.629,3.471,2.629,3.471l.1,3.648H98.425Z" transform="translate(55.171 3.834)"/></svg>