<svg xmlns="http://www.w3.org/2000/svg" xmlns:xlink="http://www.w3.org/1999/xlink" width="110.296" height="114.297" viewBox="0 0 110.296 114.297">
  <defs>
    <filter id="Path_7875" x="30.06" y="29.541" width="61.965" height="61.965" filterUnits="userSpaceOnUse">
      <feOffset dx="7" dy="18" input="SourceAlpha"/>
      <feGaussianBlur stdDeviation="10" result="blur"/>
      <feFlood flood-opacity="0.161"/>
      <feComposite operator="in" in2="blur"/>
      <feComposite in="SourceGraphic"/>
    </filter>
    <filter id="Path_7876" x="0" y="4" width="110.296" height="110.297" filterUnits="userSpaceOnUse">
      <feOffset dx="7" dy="18" input="SourceAlpha"/>
      <feGaussianBlur stdDeviation="10" result="blur-2"/>
      <feFlood flood-opacity="0.161"/>
      <feComposite operator="in" in2="blur-2"/>
      <feComposite in="SourceGraphic"/>
    </filter>
    <filter id="Path_7877" x="15.324" y="9.895" width="79.647" height="79.647" filterUnits="userSpaceOnUse">
      <feOffset dx="7" dy="18" input="SourceAlpha"/>
      <feGaussianBlur stdDeviation="10" result="blur-3"/>
      <feFlood flood-opacity="0.161"/>
      <feComposite operator="in" in2="blur-3"/>
      <feComposite in="SourceGraphic"/>
    </filter>
    <filter id="Path_7878" x="24.165" y="32.752" width="65.596" height="67.989" filterUnits="userSpaceOnUse">
      <feOffset dx="7" dy="18" input="SourceAlpha"/>
      <feGaussianBlur stdDeviation="10" result="blur-4"/>
      <feFlood flood-opacity="0.161"/>
      <feComposite operator="in" in2="blur-4"/>
      <feComposite in="SourceGraphic"/>
    </filter>
  </defs>
  <g id="Group_7667" data-name="Group 7667" transform="translate(-9068 -10388)">
    <rect id="Rectangle_2286" data-name="Rectangle 2286" width="82" height="82" transform="translate(9075 10388)" fill="none"/>
    <g id="address" transform="translate(9090.999 10404)">
      <g transform="matrix(1, 0, 0, 1, -23, -16)" filter="url(#Path_7875)">
        <path id="Path_7875-2" data-name="Path 7875" d="M306.982,260a.982.982,0,1,0,.982.982A.983.983,0,0,0,306.982,260Zm0,0" transform="translate(-252.94 -218.46)" fill="#454545"/>
      </g>
      <g transform="matrix(1, 0, 0, 1, -23, -16)" filter="url(#Path_7876)">
        <path id="Path_7876-2" data-name="Path 7876" d="M10.037,36.326.214,48.7A.982.982,0,0,0,.983,50.3H49.315a.982.982,0,0,0,.769-1.593L40.26,36.326a.982.982,0,0,0-.769-.372H30.886l7.347-11.523a15.718,15.718,0,1,0-26.167,0l7.347,11.523H10.806A.983.983,0,0,0,10.037,36.326ZM6.369,44.108h5.94L8.957,48.332H3.017Zm14.3-6.189,2.693,4.224H16.377l3.353-4.224Zm8.969,0h.935l3.352,4.224H26.94Zm5.847,6.189,3.352,4.224H11.465l3.353-4.224Zm5.861,4.224-3.353-4.224h5.94l3.352,4.224Zm1.028-6.189h-5.94l-3.353-4.224h5.94ZM13.705,23.349a13.753,13.753,0,1,1,22.888,0l-.012.017L25.149,41.3,13.716,23.367Zm3.516,14.569-3.352,4.224H7.928l3.353-4.224Zm0,0" transform="translate(23 16)" fill="#454545"/>
      </g>
      <g transform="matrix(1, 0, 0, 1, -23, -16)" filter="url(#Path_7877)">
        <path id="Path_7877-2" data-name="Path 7877" d="M165.824,79.647A9.824,9.824,0,1,0,156,69.824,9.824,9.824,0,0,0,165.824,79.647Zm0-17.682a7.859,7.859,0,1,1-7.859,7.859A7.868,7.868,0,0,1,165.824,61.965Zm0,0" transform="translate(-117.68 -38.11)" fill="#454545"/>
      </g>
      <g transform="matrix(1, 0, 0, 1, -23, -16)" filter="url(#Path_7878)">
        <path id="Path_7878-2" data-name="Path 7878" d="M251.117,292.829a.982.982,0,0,0-1.348.334l-3.631,6.024a.982.982,0,1,0,1.683,1.014l3.631-6.024A.982.982,0,0,0,251.117,292.829Zm0,0" transform="translate(-198.83 -247.94)" fill="#454545"/>
      </g>
    </g>
  </g>
</svg>
