<svg xmlns="http://www.w3.org/2000/svg" width="88.663" height="38.834" viewBox="0 0 88.663 38.834"><defs><style>.a{fill:gray;fill-rule:evenodd;}</style></defs><path class="a" d="M14.759,60.629V77.78C16.308,72.7,24.3,63.1,49.657,60.671l-34.9-.042Zm0,38.834V82.313c1.549,5.077,9.539,14.676,34.9,17.108l-34.9.042Zm88.622,0,.041-17.151c-1.55,5.077-9.54,14.676-34.9,17.108Zm0-38.834.041,17.151c-1.55-5.077-9.54-14.677-34.9-17.108Z" transform="translate(-14.759 -60.629)"/><path class="a" d="M28.126,84.113v13.31h3.791V88.379l7.134,9.045h6.156V84.07H41.294V93.8l-7.42-9.684Zm18.392-.029h3.873V97.438H46.518ZM63.145,94.422H55.439v-2.3h7.705C63.919,92.16,63.838,94.507,63.145,94.422Zm.815,2.986H51.567V84.054h12.6c3.832,0,3.955,6.229,1.223,6.613,2.894,0,3.669,6.869-1.427,6.741Zm-8.52-8.021V87.211h7.42c.775.128.571,2.218,0,2.176ZM68.5,93.871c.041,1.283,1.223,3.637,4.688,3.6h6.279c1.386.042,4.525-.557,4.606-3V92.415h-3.75v.471c-.041.728-.245,1.113-.775,1.155H72.989c-.489-.085-.693-.427-.775-1.283v-4.28c.081-.513.163-.856.775-1.027H79.43c.448,0,.9.171.9.6v.728h3.75V87.366a3.4,3.4,0,0,0-3.75-3.3H72.336A4,4,0,0,0,68.5,88.179v5.692h0Zm33.8-.029c-.081,1.288-1.223,3.693-4.729,3.607L90,97.492c-3.465.043-4.648-2.318-4.688-3.606V88.175a4.01,4.01,0,0,1,3.832-4.122h9.336a4.009,4.009,0,0,1,3.832,4.122Zm-4.81.172c.489-.086.979-.515,1.06-1.632V89.034a1.659,1.659,0,0,0-1.06-1.675H90.119a1.7,1.7,0,0,0-1.1,1.717v3.306c.081,1.116.612,1.589,1.1,1.675Zm-21.079,8.44v-2.049h.908a1.22,1.22,0,0,1,.417.055.456.456,0,0,1,.228.195.58.58,0,0,1,.085.309.518.518,0,0,1-.141.368.712.712,0,0,1-.436.19.746.746,0,0,1,.163.1,1.413,1.413,0,0,1,.225.273l.356.558h-.341l-.271-.426q-.092-.145-.2-.282a.606.606,0,0,0-.138-.137.4.4,0,0,0-.123-.055.817.817,0,0,0-.151-.01H76.69v.91h-.271Zm.271-1.145h.583a.842.842,0,0,0,.29-.039.307.307,0,0,0,.16-.122.34.34,0,0,0,.055-.185.305.305,0,0,0-.105-.238.494.494,0,0,0-.333-.095h-.648v.679h0Zm.511-1.722a1.857,1.857,0,1,1-1.868,1.87A1.872,1.872,0,0,1,77.2,99.588Zm0,.316a1.57,1.57,0,0,1,1.527,1.554A1.54,1.54,0,1,1,77.2,99.9Z" transform="translate(-20.866 -71.33)"/></svg>