<svg xmlns="http://www.w3.org/2000/svg" xmlns:xlink="http://www.w3.org/1999/xlink" width="100.71" height="100.71" viewBox="0 0 100.71 100.71"><defs><style>.a{fill:none;}.b{fill:#454545;}.c{filter:url(#g);}.d{filter:url(#e);}.e{filter:url(#c);}.f{filter:url(#a);}</style><filter id="a" x="29.311" y="36.499" width="61.621" height="61.608" filterUnits="userSpaceOnUse"><feOffset dx="7" dy="18" input="SourceAlpha"/><feGaussianBlur stdDeviation="10" result="b"/><feFlood flood-opacity="0.161"/><feComposite operator="in" in2="b"/><feComposite in="SourceGraphic"/></filter><filter id="c" x="0" y="0" width="100.71" height="100.71" filterUnits="userSpaceOnUse"><feOffset dx="7" dy="18" input="SourceAlpha"/><feGaussianBlur stdDeviation="10" result="d"/><feFlood flood-opacity="0.161"/><feComposite operator="in" in2="d"/><feComposite in="SourceGraphic"/></filter><filter id="e" x="27.841" y="25.341" width="64.787" height="68.287" filterUnits="userSpaceOnUse"><feOffset dx="7" dy="18" input="SourceAlpha"/><feGaussianBlur stdDeviation="10" result="f"/><feFlood flood-opacity="0.161"/><feComposite operator="in" in2="f"/><feComposite in="SourceGraphic"/></filter><filter id="g" x="20.358" y="9.387" width="61.645" height="61.609" filterUnits="userSpaceOnUse"><feOffset dx="7" dy="18" input="SourceAlpha"/><feGaussianBlur stdDeviation="10" result="h"/><feFlood flood-opacity="0.161"/><feComposite operator="in" in2="h"/><feComposite in="SourceGraphic"/></filter></defs><g transform="translate(13 12)"><rect class="a" width="60" height="41"/><g transform="translate(10 -0.001)"><g transform="translate(29.311 36.5)"><g class="f" transform="matrix(1, 0, 0, 1, -52.31, -48.5)"><path class="b" d="M370.143,459.432a.8.8,0,0,0-1.087-.289l-.031.018a.8.8,0,1,0,.8,1.375l.031-.018A.8.8,0,0,0,370.143,459.432Z" transform="translate(-316.32 -410.54)"/></g></g><g transform="translate(0 0.001)"><g transform="translate(0 0)"><g class="e" transform="matrix(1, 0, 0, 1, -23, -12)"><path class="b" d="M37.983,10.185A20.35,20.35,0,0,0,.7,15.093,20.354,20.354,0,0,0,27.639,39.366a.8.8,0,1,0-.571-1.484A18.639,18.639,0,0,1,9.131,35.417L9.844,31.7l.343-.111a2.477,2.477,0,0,0,1.588-3.117l-.252-.775a.878.878,0,0,1,0-.548,2.474,2.474,0,0,0-1.876-3.2L7.854,23.6,4.391,20.965a.8.8,0,0,0-.727-.123L1.637,21.5a18.744,18.744,0,0,1,0-2.171c.08.075.132.125.164.158a.833.833,0,0,0,.777.4A11.549,11.549,0,0,0,4,19.724c.671-.1,1.338-.211,1.345-.212A.795.795,0,0,0,5.87,18.28L4.9,16.85l1.4-1a.8.8,0,0,0,.227-.252l2.165-3.779.872-.935A3.358,3.358,0,0,0,10.2,7.324,3.657,3.657,0,0,0,8.756,5.618,18.736,18.736,0,0,1,20.142,1.606l-1.42,1.781L13.457,5.232a.8.8,0,0,0-.472.447l-1.47,3.564a.8.8,0,0,0,.088.765l2.147,3.008a7.557,7.557,0,0,0-.964,1.2c-.157.223-.3.433-.407.551-.089.1-.178.2-.266.3a7.441,7.441,0,0,0-1.279,1.775,4.738,4.738,0,0,0,.393,4.79,4.462,4.462,0,0,0,4.213,1.808,6.191,6.191,0,0,0,.777-.157c.682-.169.9-.186,1.116.019.106.1.116.118.114.456a3.091,3.091,0,0,0,.071.788,2.512,2.512,0,0,0,.672,1.1,1.782,1.782,0,0,1,.288.368,1.98,1.98,0,0,1-.1,1.645l-.062.189a4.462,4.462,0,0,0,.584,3.19c.144.316.279.615.368.879.715,2.121,1.251,2.607,1.681,2.8a1.657,1.657,0,0,0,.694.147,4.446,4.446,0,0,0,2.892-1.739,2.444,2.444,0,0,0,.492-1.158,1.268,1.268,0,0,1,.1-.355,2.083,2.083,0,0,1,.261-.335,2.758,2.758,0,0,0,.65-1.08,1.75,1.75,0,0,1,.54-.847l.176-.188a2.55,2.55,0,0,0,.5-2.965c-.243-.784.182-1.286,1.21-2.243a8.588,8.588,0,0,0,1.262-1.36A1.717,1.717,0,0,0,30.065,21c-.288-.667-1.019-.779-1.606-.869a2.635,2.635,0,0,1-.694-.162,3.759,3.759,0,0,1-1.084-1.642c-.058-.129-.115-.257-.173-.381-.1-.221-.207-.488-.316-.771a6.67,6.67,0,0,0-1.175-2.189,5.078,5.078,0,0,0-2.282-1.014c-.281-.076-.545-.148-.72-.212a.794.794,0,0,0-.457-.028,2.063,2.063,0,0,0-.848.351.988.988,0,0,0-.283.381,9.094,9.094,0,0,1-.938-.571l-.015-.01a1.127,1.127,0,0,0-.071-.765c-.444-.94-1.919-.866-2.209-.841-.165.014-.374.021-.6.029-.347.012-.731.026-1.111.069l.02-.055a2.033,2.033,0,0,1,1.909-1.343h.452a.8.8,0,1,0,0-1.59h-.452A3.629,3.629,0,0,0,14.338,11.1L13.152,9.443l1.167-2.828,5.145-1.8a.8.8,0,0,0,.359-.255L22.11,1.688a18.75,18.75,0,0,1,14.5,9.292,18.554,18.554,0,0,1,1.874,4.551l-.337.3a2.124,2.124,0,0,0-.708,1.545c0,.006,0,.013,0,.019l-.549-1.51a1.985,1.985,0,0,0-.358-.614l-.98-1.147a1.993,1.993,0,0,0-1.517-.7h-1.2a1.152,1.152,0,0,0-.958,1.79l.121.182a8.812,8.812,0,0,1-2.625,1.559l-1.644-3.148v-.7a.8.8,0,0,0-.246-.575L26,11.118a.8.8,0,0,0-.285-.175l-1.332-.468a.8.8,0,1,0-.527,1.5l1.171.411,1.11,1.06V14a.8.8,0,0,0,.09.368l2.058,3.941a.8.8,0,0,0,.98.378l.6-.221a10.405,10.405,0,0,0,3.731-2.388.8.8,0,0,0,.1-1l-.042-.064h.38a.4.4,0,0,1,.308.142l.98,1.147a.4.4,0,0,1,.073.125L36.472,19.4a.795.795,0,0,0,1.309.29l.515-.515a2.482,2.482,0,0,0,.657-1.2A18.828,18.828,0,0,1,31.963,35.1a.8.8,0,1,0,.982,1.251,20.354,20.354,0,0,0,5.038-26.17ZM3.76,22.483l3.279,2.493a.794.794,0,0,0,.329.147l1.976.386a.883.883,0,0,1,.67,1.142,2.458,2.458,0,0,0,0,1.535l.252.775A.885.885,0,0,1,9.7,30.075l-.79.257a.8.8,0,0,0-.535.607l-.636,3.32A18.97,18.97,0,0,1,4.113,29.74,18.661,18.661,0,0,1,1.8,23.119ZM8.394,9.8l-.935,1a.8.8,0,0,0-.109.147L5.226,14.659l-1.888,1.35A.8.8,0,0,0,3.143,17.1l.706,1.036c-.407.061-.772.111-1.015.137l-.146-.137c-.189-.176-.452-.41-.843-.753a18.793,18.793,0,0,1,5.6-10.636A2.067,2.067,0,0,1,8.734,7.93,1.764,1.764,0,0,1,8.394,9.8Zm6.483,4.345a5.1,5.1,0,0,1,1.779-.25c.241-.009.468-.017.672-.034a2.162,2.162,0,0,1,.339,0,.795.795,0,0,0,.366.989c.149.08.357.218.577.365a4.581,4.581,0,0,0,1.987.926,1.319,1.319,0,0,0,1.08-.45l.034-.034a.852.852,0,0,0,.213-.261c.127.036.261.073.4.11a5.294,5.294,0,0,1,1.541.57,5.644,5.644,0,0,1,.848,1.671c.12.309.232.6.359.872.054.116.108.236.162.357A4.965,4.965,0,0,0,26.895,21.3a3.287,3.287,0,0,0,1.323.4l.173.027a7.688,7.688,0,0,1-1.009,1.059c-.984.917-2.209,2.057-1.645,3.877.266.859.279.952-.149,1.418l-.164.176a3.267,3.267,0,0,0-.9,1.454,1.241,1.241,0,0,1-.324.505,3.55,3.55,0,0,0-.445.589,2.577,2.577,0,0,0-.288.845.973.973,0,0,1-.166.466,4.635,4.635,0,0,1-1,.888,1.312,1.312,0,0,1-.666.265,5.672,5.672,0,0,1-.857-1.867c-.114-.34-.273-.69-.427-1.028a3.409,3.409,0,0,1-.518-2.044l.06-.182a3.473,3.473,0,0,0,.053-2.753,2.867,2.867,0,0,0-.579-.825,1.478,1.478,0,0,1-.3-.4,1.719,1.719,0,0,1-.026-.4,1.972,1.972,0,0,0-.617-1.628,2.561,2.561,0,0,0-2.585-.4,4.988,4.988,0,0,1-.58.121A2.856,2.856,0,0,1,12.518,20.7a3.148,3.148,0,0,1-.247-3.182,6.037,6.037,0,0,1,1.029-1.4c.092-.1.186-.209.279-.316.155-.179.326-.421.506-.677A5.748,5.748,0,0,1,14.876,14.146Z" transform="translate(23 12)"/></g></g></g><g transform="translate(27.842 25.342)"><g class="d" transform="matrix(1, 0, 0, 1, -50.84, -37.34)"><path class="b" d="M354.91,320.744l-.383-1.442a.8.8,0,0,0-1.467-.175c-.087.161-.166.331-.241.5a3.417,3.417,0,0,1-.4.721,1.756,1.756,0,0,1-.467.277,2.186,2.186,0,0,0-1.324,1.287,2.33,2.33,0,0,0-.053,1.122.724.724,0,0,1-.02.469l-.008.019a2.676,2.676,0,0,0-.064,2.639,1.656,1.656,0,0,0,1.351.843,1.289,1.289,0,0,0,.212-.017c.811-.133,1.421-.976,1.919-2.655l.935-3.152A.8.8,0,0,0,354.91,320.744Zm-2.466,3.13a4.823,4.823,0,0,1-.608,1.433c-.015-.019-.031-.041-.048-.065-.152-.216.075-.749.225-1.1l.008-.019a2.237,2.237,0,0,0,.13-1.325.834.834,0,0,1,0-.413c.031-.1.217-.2.5-.331.124-.06.261-.126.4-.206Z" transform="translate(-299.31 -281.37)"/></g></g><g transform="translate(20.359 9.388)"><g class="c" transform="matrix(1, 0, 0, 1, -43.36, -21.39)"><path class="b" d="M257.156,118.123l-.054-.019a.8.8,0,0,0-.526,1.5l.054.019a.8.8,0,1,0,.526-1.5Z" transform="translate(-212.69 -96.67)"/></g></g></g></g></svg>