<svg xmlns="http://www.w3.org/2000/svg" xmlns:xlink="http://www.w3.org/1999/xlink" width="78" height="78" viewBox="0 0 78 78"><defs><style>.a{fill:#fff;}.b{filter:url(#a);}</style><filter id="a" x="0" y="0" width="78" height="78" filterUnits="userSpaceOnUse"><feOffset dy="3" input="SourceAlpha"/><feGaussianBlur stdDeviation="3" result="b"/><feFlood flood-opacity="0.161"/><feComposite operator="in" in2="b"/><feComposite in="SourceGraphic"/></filter></defs><g class="b" transform="matrix(1, 0, 0, 1, 0, 0)"><path class="a" d="M30,0A30,30,0,1,0,60,30,30.034,30.034,0,0,0,30,0ZM41.563,30.826l-18,12A1,1,0,0,1,23,43a1,1,0,0,1-1-1V18a1,1,0,0,1,1.564-.826l18,12a1,1,0,0,1,0,1.652Z" transform="translate(9 6)"/></g></svg>