<svg xmlns="http://www.w3.org/2000/svg" width="137.432" height="39.063" viewBox="0 0 137.432 39.063"><defs><style>.a{fill:gray;fill-rule:evenodd;}</style></defs><path class="a" d="M21.3,83.983a3.508,3.508,0,0,0,.239,1.078c.24.838,1.318,1.078,2.157,1.078s1.917-.24,1.917-1.437c0-.719-.6-.959-3.235-1.678-2.4-.719-5.153-1.437-5.153-4.433,0-3.474,3-5.032,6.11-5.032,3.355,0,6.23,1.2,6.35,4.912H25.252a1.14,1.14,0,0,0-.479-1.2,3.184,3.184,0,0,0-1.437-.359c-.6,0-1.678.12-1.678,1.078.12,1.078,2.277,1.318,4.433,1.917S30.4,81.467,30.4,84.224c0,3.954-3.714,5.272-7.069,5.272-1.8,0-6.71-.6-6.71-5.511H21.3v0Zm21.567-1.677c-.24-3.115-2.756-4.553-5.632-4.553a5.761,5.761,0,0,0-5.991,5.871,5.665,5.665,0,0,0,5.991,5.752c3,0,5.392-1.677,5.751-4.673H39.03a1.8,1.8,0,0,1-1.678,1.677c-1.677,0-1.917-1.438-1.917-2.756s.24-2.756,1.917-2.756a1.465,1.465,0,0,1,1.078.359,2.272,2.272,0,0,1,.479,1.078Zm1.917-8.388h4.194v5.393a3.875,3.875,0,0,1,3.474-1.558,3.579,3.579,0,0,1,3.834,3.834v7.549H52.09V83.384c0-1.318-.239-2.276-1.438-2.276-.719,0-1.677.359-1.677,2.157v5.871H44.781V73.918Zm13.9,15.217h4.194V78.112H58.681Zm0-12.222h4.194v-3H58.681Zm6.59,12.222h4.194V83.265c0-1.8.959-2.157,1.677-2.157,1.318,0,1.437.959,1.437,2.276v5.752h4.194V81.587a3.579,3.579,0,0,0-3.834-3.834,4.177,4.177,0,0,0-3.595,1.677V78.113H65.27V89.136h0ZM86.48,83.623c0,1.318-.36,2.756-1.8,2.756-1.558,0-1.917-1.438-1.917-2.756s.359-2.756,1.917-2.756C86.119,80.868,86.48,82.306,86.48,83.623Zm4.073-9.705H86.359v5.393a3.8,3.8,0,0,0-3.114-1.558c-3.714,0-4.674,3.235-4.674,5.752,0,2.756,1.558,5.871,4.674,5.871a3.466,3.466,0,0,0,3.235-1.437v1.2h4.073V73.918h0Zm2.4,15.217h4.194V73.918H92.95Zm18.332-4.553c0-4.313-1.917-6.829-6.351-6.829a5.733,5.733,0,0,0-5.871,5.871c0,3.714,2.755,5.752,6.232,5.752,2.516,0,4.912-1.078,5.751-3.475h-3.955a2.34,2.34,0,0,1-1.8.839,2.15,2.15,0,0,1-2.158-2.157h8.148Zm-8.148-2.276a2,2,0,0,1,2.158-1.8,1.869,1.869,0,0,1,1.917,1.8Zm9.825-4.194h4.075v1.677h.119a3.093,3.093,0,0,1,3-2.037,5.08,5.08,0,0,1,1.318.24v3.714a5.555,5.555,0,0,0-1.677-.24c-1.677,0-2.516.959-2.516,3.235v4.433h-4.315V78.112ZM138.24,82.9a3.754,3.754,0,0,0,.84-2.516,4.551,4.551,0,0,0-4.553-4.553,4.45,4.45,0,0,0-4.434,4.553,4.873,4.873,0,0,0,.958,2.875l-2.276,4.073a9.145,9.145,0,0,1-3.235-6.95,9.047,9.047,0,0,1,18.093,0A9.575,9.575,0,0,1,141,86.858L138.24,82.9Z" transform="translate(-10.274 -71.401)"/><path class="a" d="M166.367,82.895l-4.793,9.225h9.345Z" transform="translate(-41.876 -73.907)"/><path class="a" d="M15.454,101.281H145.936v3.355H15.454ZM8.5,107.392H145.936v3.474H8.5Zm50.085,6.11h87.348v3.475H58.589Z" transform="translate(-8.504 -77.915)"/></svg>