<svg xmlns="http://www.w3.org/2000/svg" width="57" height="36.056" viewBox="0 0 57 36.056"><defs><style>.a{fill:#fff;}</style></defs><g transform="translate(0 -94.062)"><path class="a" d="M53.01,109.347l-1.476-5.9a.893.893,0,0,0,.706-.873v-.952a3.753,3.753,0,0,0-3.748-3.748H41.768V95.906a1.847,1.847,0,0,0-1.844-1.844H5.652a1.847,1.847,0,0,0-1.844,1.844V112.09a.893.893,0,1,0,1.785,0V95.906a.059.059,0,0,1,.059-.059H39.924a.059.059,0,0,1,.059.059v16.184a.893.893,0,1,0,1.785,0v-1.012H52.3a2.92,2.92,0,0,1,2.773,2.023H52.3a.893.893,0,0,0-.893.893v1.9a2.8,2.8,0,0,0,2.8,2.8h1.012v3.927H52.881a5.651,5.651,0,0,0-10.684,0h-.43V115.9a.893.893,0,0,0-1.785,0v6.723H21.466a5.651,5.651,0,0,0-10.684,0H5.652a.059.059,0,0,1-.059-.059V120.6H9.46a.893.893,0,0,0,0-1.785H.893a.893.893,0,0,0,0,1.785H3.808v1.963a1.847,1.847,0,0,0,1.844,1.844h4.821c0,.02,0,.04,0,.059a5.652,5.652,0,1,0,11.3,0c0-.02,0-.04,0-.059H41.889c0,.02,0,.04,0,.059a5.652,5.652,0,1,0,11.3,0c0-.02,0-.04,0-.059h2.917a.893.893,0,0,0,.893-.893v-9.52A4.708,4.708,0,0,0,53.01,109.347Zm-11.241-5.885H49.7l1.458,5.831H41.768v-5.831Zm6.723-3.808a1.966,1.966,0,0,1,1.963,1.963v.059H41.768V99.655ZM16.124,128.334a3.867,3.867,0,1,1,3.867-3.867A3.872,3.872,0,0,1,16.124,128.334Zm31.416,0a3.867,3.867,0,1,1,3.867-3.867A3.872,3.872,0,0,1,47.54,128.334ZM54.2,116.91a1.013,1.013,0,0,1-1.012-1.012v-1.012h2.023v2.023H54.2Z"/><path class="a" d="M130.111,350.6a1.844,1.844,0,1,0,1.844,1.844A1.847,1.847,0,0,0,130.111,350.6Z" transform="translate(-113.987 -227.975)"/><path class="a" d="M412.3,350.6a1.844,1.844,0,1,0,1.845,1.844A1.847,1.847,0,0,0,412.3,350.6Z" transform="translate(-364.76 -227.975)"/><path class="a" d="M205.228,317.285a.893.893,0,0,0,.893.893h13.328a.893.893,0,0,0,0-1.785H206.12A.893.893,0,0,0,205.228,317.285Z" transform="translate(-182.38 -197.578)"/><path class="a" d="M17.995,283.972H29.418a.893.893,0,0,0,0-1.785H17.995a.893.893,0,0,0,0,1.785Z" transform="translate(-15.198 -167.181)"/><path class="a" d="M158.959,171.285l-7.937,7.937-4.129-4.129a.892.892,0,1,0-1.262,1.262l4.76,4.76a.892.892,0,0,0,1.262,0l8.568-8.568a.892.892,0,0,0-1.262-1.262Z" transform="translate(-129.186 -68.394)"/></g></svg>