<svg xmlns="http://www.w3.org/2000/svg" xmlns:xlink="http://www.w3.org/1999/xlink" width="120" height="97.954" viewBox="0 0 120 97.954"><defs><style>.a{fill:none;}.b{fill:#454545;}.c{filter:url(#k);}.d{filter:url(#i);}.e{filter:url(#g);}.f{filter:url(#e);}.g{filter:url(#c);}.h{filter:url(#a);}</style><filter id="a" x="0" y="0" width="120" height="97.954" filterUnits="userSpaceOnUse"><feOffset dx="7" dy="18" input="SourceAlpha"/><feGaussianBlur stdDeviation="10" result="b"/><feFlood flood-opacity="0.161"/><feComposite operator="in" in2="b"/><feComposite in="SourceGraphic"/></filter><filter id="c" x="15.031" y="30.063" width="63.883" height="63.883" filterUnits="userSpaceOnUse"><feOffset dx="7" dy="18" input="SourceAlpha"/><feGaussianBlur stdDeviation="10" result="d"/><feFlood flood-opacity="0.161"/><feComposite operator="in" in2="d"/><feComposite in="SourceGraphic"/></filter><filter id="e" x="48.1" y="30.063" width="63.883" height="63.883" filterUnits="userSpaceOnUse"><feOffset dx="7" dy="18" input="SourceAlpha"/><feGaussianBlur stdDeviation="10" result="f"/><feFlood flood-opacity="0.161"/><feComposite operator="in" in2="f"/><feComposite in="SourceGraphic"/></filter><filter id="g" x="24.05" y="26.054" width="75.908" height="61.879" filterUnits="userSpaceOnUse"><feOffset dx="7" dy="18" input="SourceAlpha"/><feGaussianBlur stdDeviation="10" result="h"/><feFlood flood-opacity="0.161"/><feComposite operator="in" in2="h"/><feComposite in="SourceGraphic"/></filter><filter id="i" x="2.004" y="22.046" width="73.904" height="61.879" filterUnits="userSpaceOnUse"><feOffset dx="7" dy="18" input="SourceAlpha"/><feGaussianBlur stdDeviation="10" result="j"/><feFlood flood-opacity="0.161"/><feComposite operator="in" in2="j"/><feComposite in="SourceGraphic"/></filter><filter id="k" x="17.036" y="9.019" width="75.908" height="70.898" filterUnits="userSpaceOnUse"><feOffset dx="7" dy="18" input="SourceAlpha"/><feGaussianBlur stdDeviation="10" result="l"/><feFlood flood-opacity="0.161"/><feComposite operator="in" in2="l"/><feComposite in="SourceGraphic"/></filter></defs><g transform="translate(23 11)"><rect class="a" width="60" height="41"/><g transform="translate(0 1)"><g class="h" transform="matrix(1, 0, 0, 1, -23, -12)"><path class="b" d="M55.8,110.152l-1.554-6.215a.94.94,0,0,0,.744-.919v-1a3.95,3.95,0,0,0-3.946-3.946H43.967V96a1.944,1.944,0,0,0-1.942-1.942H5.95A1.944,1.944,0,0,0,4.008,96v17.036a.939.939,0,0,0,1.879,0V96a.063.063,0,0,1,.063-.063H42.025a.063.063,0,0,1,.063.063v17.036a.939.939,0,1,0,1.879,0v-1.065H55.054a3.074,3.074,0,0,1,2.919,2.129H55.052a.94.94,0,0,0-.939.939v2a2.947,2.947,0,0,0,2.944,2.944h1.065v4.134H55.665a5.948,5.948,0,0,0-11.246,0h-.452v-7.077a.939.939,0,0,0-1.879,0v7.077H22.6a5.948,5.948,0,0,0-11.246,0H5.95a.063.063,0,0,1-.063-.063V122H9.958a.94.94,0,0,0,0-1.879H.939a.94.94,0,0,0,0,1.879H4.008v2.067A1.944,1.944,0,0,0,5.95,126h5.075c0,.021,0,.042,0,.063a5.95,5.95,0,0,0,11.9,0c0-.021,0-.042,0-.063H44.093c0,.021,0,.042,0,.063a5.95,5.95,0,0,0,11.9,0c0-.021,0-.042,0-.063h3.071a.94.94,0,0,0,.939-.939V115.043A4.955,4.955,0,0,0,55.8,110.152Zm-11.833-6.194h8.348l1.534,6.138H43.967v-6.138Zm7.077-4.008a2.069,2.069,0,0,1,2.067,2.067v.063H43.967V99.949ZM16.973,130.137a4.071,4.071,0,1,1,4.071-4.071A4.076,4.076,0,0,1,16.973,130.137Zm33.069,0a4.071,4.071,0,1,1,4.071-4.071A4.076,4.076,0,0,1,50.042,130.137Zm7.015-12.025a1.066,1.066,0,0,1-1.065-1.065v-1.065h2.129v2.129H57.056Z" transform="translate(23 -82.06)"/></g><g class="g" transform="matrix(1, 0, 0, 1, -23, -12)"><path class="b" d="M130.209,350.6a1.942,1.942,0,1,0,1.942,1.942A1.944,1.944,0,0,0,130.209,350.6Z" transform="translate(-90.24 -308.53)"/></g><g class="f" transform="matrix(1, 0, 0, 1, -23, -12)"><path class="b" d="M412.4,350.6a1.942,1.942,0,1,0,1.942,1.942A1.944,1.944,0,0,0,412.4,350.6Z" transform="translate(-339.35 -308.53)"/></g><g class="e" transform="matrix(1, 0, 0, 1, -23, -12)"><path class="b" d="M205.228,317.331a.94.94,0,0,0,.939.94H220.2a.939.939,0,1,0,0-1.879H206.167A.939.939,0,0,0,205.228,317.331Z" transform="translate(-158.18 -278.34)"/></g><g class="d" transform="matrix(1, 0, 0, 1, -23, -12)"><path class="b" d="M18.041,284.066H30.067a.94.94,0,0,0,0-1.879H18.041a.94.94,0,0,0,0,1.879Z" transform="translate(7.9 -248.14)"/></g><g class="c" transform="matrix(1, 0, 0, 1, -23, -12)"><path class="b" d="M159.674,171.3l-8.355,8.354-4.346-4.346a.939.939,0,1,0-1.329,1.329l5.01,5.01a.939.939,0,0,0,1.328,0L161,172.627a.939.939,0,1,0-1.328-1.329Z" transform="translate(-105.33 -150)"/></g></g></g></svg>