<svg xmlns="http://www.w3.org/2000/svg" width="134.271" height="23.739" viewBox="0 0 134.271 23.739"><defs><style>.a{fill:gray;fill-rule:evenodd;}</style></defs><path class="a" d="M24.2,89.439l-9.921-4.056H27.628l.753-5.543H10.747a6.187,6.187,0,0,0-6.065,6.105,5.152,5.152,0,0,0,3.374,4.981l9.64,4.017H3.6l-.763,5.583,17.271.04c3.613.009,6.7-1.952,7.311-5.664C27.889,92.036,26.786,90.5,24.2,89.439Zm4.017,11.126h9.961l.888-7.15H42.2l-.888,7.15h9.961l2.576-20.726H43.888l-.894,7.19H39.863l.894-7.19H30.8L28.22,100.565Zm50.186-9.72a11.37,11.37,0,0,1-2.749,5.824,12.62,12.62,0,0,1-4.138,3.253,14.494,14.494,0,0,1-5.622,1.446A10.53,10.53,0,0,1,58.1,99.24,8.472,8.472,0,0,1,55.252,95.3a8.253,8.253,0,0,1-.125-3.776l1.45-11.688h10.2L64.967,94.178H67.6l1.812-14.339H79.676l-1.27,11.006Zm10.185,9.72H79.843l1.6-12.773H95.7l.36-2.45H81.753l.69-5.5h17.7c6.887,0,7.024,9.864-.853,11.559l7.3,3.944,1.9-15.5h22.027l-.52,4.74H118.161l-.349,2.852h11.874l-.6,5.583H117.13l-.344,2.811h11.937l-.52,4.74H106l-.356,3.014-16.2-9.84-.855,6.827Zm46.376-18.841H134.6v.791h.381a.893.893,0,0,0,.463-.09.319.319,0,0,0,.141-.29.348.348,0,0,0-.147-.314.862.862,0,0,0-.469-.1Zm.082-.292a1.371,1.371,0,0,1,.747.164.551.551,0,0,1,.251.491.626.626,0,0,1-.143.422.683.683,0,0,1-.4.221l.534,1.091h-.506l-.488-1.019H134.6v1.019h-.451V81.432h.9Zm1.781,1.256a1.915,1.915,0,0,0-.133-.717,1.854,1.854,0,0,0-2.4-1,1.682,1.682,0,0,0-.575.385,1.949,1.949,0,0,0-.415.611,1.763,1.763,0,0,0-.006,1.387,1.847,1.847,0,0,0,.4.593,1.812,1.812,0,0,0,1.987.408,1.942,1.942,0,0,0,.609-.4,1.735,1.735,0,0,0,.4-.578A1.77,1.77,0,0,0,136.83,82.687Zm-1.839-2.128a2.066,2.066,0,0,1,1.5.627,2.125,2.125,0,0,1,.453,2.292,1.994,1.994,0,0,1-.459.67,2.2,2.2,0,0,1-.7.464,2.059,2.059,0,0,1-1.6,0,2.083,2.083,0,0,1-.684-.47,2.117,2.117,0,0,1-.457-.682,2.061,2.061,0,0,1,.006-1.6,2.208,2.208,0,0,1,.474-.7,1.94,1.94,0,0,1,.66-.447,2.133,2.133,0,0,1,.8-.151Z" transform="translate(-2.835 -79.839)"/></svg>