<svg xmlns="http://www.w3.org/2000/svg" width="31" height="31" viewBox="0 0 31 31"><defs><style>.a{fill:#fff;}</style></defs><g transform="translate(0 0)"><path class="a" d="M15.5,0A15.5,15.5,0,1,0,31,15.5,15.518,15.518,0,0,0,15.5,0Zm6.915,11.952c.007.154.011.308.011.463a10.148,10.148,0,0,1-15.62,8.547,7.2,7.2,0,0,0,5.282-1.477,3.571,3.571,0,0,1-3.333-2.478,3.581,3.581,0,0,0,1.611-.06A3.568,3.568,0,0,1,7.5,13.45c0-.015,0-.031,0-.045a3.553,3.553,0,0,0,1.615.446,3.573,3.573,0,0,1-1.1-4.763,10.13,10.13,0,0,0,7.353,3.729,3.57,3.57,0,0,1,6.079-3.255A7.121,7.121,0,0,0,23.715,8.7a3.584,3.584,0,0,1-1.571,1.974,7.093,7.093,0,0,0,2.049-.561A7.176,7.176,0,0,1,22.415,11.952Z" transform="translate(0 0)"/></g></svg>