<svg xmlns="http://www.w3.org/2000/svg" width="31" height="31" viewBox="0 0 31 31"><defs><style>.a{fill:#fff;}</style></defs><g transform="translate(0 0.001)"><path class="a" d="M-1553.5-3799a15.4,15.4,0,0,1-10.96-4.54,15.4,15.4,0,0,1-4.54-10.96,15.4,15.4,0,0,1,4.54-10.96,15.4,15.4,0,0,1,10.96-4.54,15.4,15.4,0,0,1,10.96,4.54,15.4,15.4,0,0,1,4.54,10.96,15.4,15.4,0,0,1-4.54,10.96A15.4,15.4,0,0,1-1553.5-3799Zm-5.186-21.777a3.688,3.688,0,0,0-3.684,3.684v5.185a3.689,3.689,0,0,0,3.684,3.684h10.371a3.689,3.689,0,0,0,3.684-3.684v-5.185a3.688,3.688,0,0,0-3.684-3.684Zm2.945,8.862a.2.2,0,0,1-.195-.2v-4.772a.2.2,0,0,1,.2-.2.193.193,0,0,1,.088.021l4.851,2.459a.193.193,0,0,1,.106.175.2.2,0,0,1-.111.175l-4.85,2.314A.192.192,0,0,1-1555.741-3811.915Z" transform="translate(1569 3830)"/></g></svg>