<svg xmlns="http://www.w3.org/2000/svg" xmlns:xlink="http://www.w3.org/1999/xlink" width="1426" height="122" viewBox="0 0 1426 122"><defs><style>.a{fill:none;}.b{fill:url(#a);}.c{opacity:0.01;clip-path:url(#d);}.d{filter:url(#b);}</style><linearGradient id="a" x1="1" y1="1" x2="0.043" y2="0.137" gradientUnits="objectBoundingBox"><stop offset="0" stop-color="#ae322e"/><stop offset="1" stop-color="#1b67a2"/></linearGradient><filter id="b" x="0" y="0" width="1426" height="122" filterUnits="userSpaceOnUse"><feOffset dx="7" dy="18" input="SourceAlpha"/><feGaussianBlur stdDeviation="10" result="c"/><feFlood flood-opacity="0.161"/><feComposite operator="in" in2="c"/><feComposite in="SourceGraphic"/></filter><clipPath id="d"><rect class="a" width="1366" height="62"/></clipPath></defs><g transform="translate(23 -74)"><g class="d" transform="matrix(1, 0, 0, 1, -23, 74)"><rect class="b" width="1366" height="62" rx="2" transform="translate(23 12)"/></g><g class="c" transform="translate(1 86)"><g transform="translate(-1505 -740)"><rect width="38" height="38" transform="translate(1504 741)"/></g><g transform="translate(-1462 -740)"><rect width="38" height="38" transform="translate(1504 741)"/></g><g transform="translate(-1419 -740)"><rect width="38" height="38" transform="translate(1504 741)"/></g><g transform="translate(-1376 -740)"><rect width="38" height="38" transform="translate(1504 741)"/></g><g transform="translate(-1333 -740)"><rect width="38" height="38" transform="translate(1504 741)"/></g><g transform="translate(-1290 -740)"><rect width="38" height="38" transform="translate(1504 741)"/></g><g transform="translate(-1247 -740)"><rect width="38" height="38" transform="translate(1504 741)"/></g><g transform="translate(-1204 -740)"><rect width="38" height="38" transform="translate(1504 741)"/></g><g transform="translate(-1161 -740)"><rect width="38" height="38" transform="translate(1504 741)"/></g><g transform="translate(-1118 -740)"><rect width="38" height="38" transform="translate(1504 741)"/></g><g transform="translate(-1075 -740)"><rect width="38" height="38" transform="translate(1504 741)"/></g><g transform="translate(-1032 -740)"><rect width="38" height="38" transform="translate(1504 741)"/></g><g transform="translate(-989 -740)"><rect width="38" height="38" transform="translate(1504 741)"/></g><g transform="translate(-946 -740)"><rect width="38" height="38" transform="translate(1504 741)"/></g><g transform="translate(-903 -740)"><rect width="38" height="38" transform="translate(1504 741)"/></g><g transform="translate(-860 -740)"><rect width="38" height="38" transform="translate(1504 741)"/></g><g transform="translate(-817 -740)"><rect width="38" height="38" transform="translate(1504 741)"/></g><g transform="translate(-774 -740)"><rect width="38" height="38" transform="translate(1504 741)"/></g><g transform="translate(-731 -740)"><rect width="38" height="38" transform="translate(1504 741)"/></g><g transform="translate(-688 -740)"><rect width="38" height="38" transform="translate(1504 741)"/></g><g transform="translate(-645 -740)"><rect width="38" height="38" transform="translate(1504 741)"/></g><g transform="translate(-602 -740)"><rect width="38" height="38" transform="translate(1504 741)"/></g><g transform="translate(-559 -740)"><rect width="38" height="38" transform="translate(1504 741)"/></g><g transform="translate(-516 -740)"><rect width="38" height="38" transform="translate(1504 741)"/></g><g transform="translate(-473 -740)"><rect width="38" height="38" transform="translate(1504 741)"/></g><g transform="translate(-430 -740)"><rect width="38" height="38" transform="translate(1504 741)"/></g><g transform="translate(-387 -740)"><rect width="38" height="38" transform="translate(1504 741)"/></g><g transform="translate(-344 -740)"><rect width="38" height="38" transform="translate(1504 741)"/></g><g transform="translate(-301 -740)"><rect width="38" height="38" transform="translate(1504 741)"/></g><g transform="translate(-258 -740)"><rect width="38" height="38" transform="translate(1504 741)"/></g><g transform="translate(-215 -740)"><rect width="38" height="38" transform="translate(1504 741)"/></g><g transform="translate(-172 -740)"><rect width="38" height="38" transform="translate(1504 741)"/></g><g transform="translate(-1505 -698)"><rect width="38" height="38" transform="translate(1504 741)"/></g><g transform="translate(-1462 -698)"><rect width="38" height="38" transform="translate(1504 741)"/></g><g transform="translate(-1419 -698)"><rect width="38" height="38" transform="translate(1504 741)"/></g><g transform="translate(-1376 -698)"><rect width="38" height="38" transform="translate(1504 741)"/></g><g transform="translate(-1333 -698)"><rect width="38" height="38" transform="translate(1504 741)"/></g><g transform="translate(-1290 -698)"><rect width="38" height="38" transform="translate(1504 741)"/></g><g transform="translate(-1247 -698)"><rect width="38" height="38" transform="translate(1504 741)"/></g><g transform="translate(-1204 -698)"><rect width="38" height="38" transform="translate(1504 741)"/></g><g transform="translate(-1161 -698)"><rect width="38" height="38" transform="translate(1504 741)"/></g><g transform="translate(-1118 -698)"><rect width="38" height="38" transform="translate(1504 741)"/></g><g transform="translate(-1075 -698)"><rect width="38" height="38" transform="translate(1504 741)"/></g><g transform="translate(-1032 -698)"><rect width="38" height="38" transform="translate(1504 741)"/></g><g transform="translate(-989 -698)"><rect width="38" height="38" transform="translate(1504 741)"/></g><g transform="translate(-946 -698)"><rect width="38" height="38" transform="translate(1504 741)"/></g><g transform="translate(-903 -698)"><rect width="38" height="38" transform="translate(1504 741)"/></g><g transform="translate(-860 -698)"><rect width="38" height="38" transform="translate(1504 741)"/></g><g transform="translate(-817 -698)"><rect width="38" height="38" transform="translate(1504 741)"/></g><g transform="translate(-774 -698)"><rect width="38" height="38" transform="translate(1504 741)"/></g><g transform="translate(-731 -698)"><rect width="38" height="38" transform="translate(1504 741)"/></g><g transform="translate(-688 -698)"><rect width="38" height="38" transform="translate(1504 741)"/></g><g transform="translate(-645 -698)"><rect width="38" height="38" transform="translate(1504 741)"/></g><g transform="translate(-602 -698)"><rect width="38" height="38" transform="translate(1504 741)"/></g><g transform="translate(-559 -698)"><rect width="38" height="38" transform="translate(1504 741)"/></g><g transform="translate(-516 -698)"><rect width="38" height="38" transform="translate(1504 741)"/></g><g transform="translate(-473 -698)"><rect width="38" height="38" transform="translate(1504 741)"/></g><g transform="translate(-430 -698)"><rect width="38" height="38" transform="translate(1504 741)"/></g><g transform="translate(-387 -698)"><rect width="38" height="38" transform="translate(1504 741)"/></g><g transform="translate(-344 -698)"><rect width="38" height="38" transform="translate(1504 741)"/></g><g transform="translate(-301 -698)"><rect width="38" height="38" transform="translate(1504 741)"/></g><g transform="translate(-258 -698)"><rect width="38" height="38" transform="translate(1504 741)"/></g><g transform="translate(-215 -698)"><rect width="38" height="38" transform="translate(1504 741)"/></g><g transform="translate(-172 -698)"><rect width="38" height="38" transform="translate(1504 741)"/></g></g></g></svg>